<mxfile host="app.diagrams.net" modified="2024-05-24T18:49:57.772Z" agent="Mozilla/5.0 (Windows NT 10.0; Win64; x64) AppleWebKit/537.36 (KHTML, like Gecko) Chrome/125.0.0.0 Safari/537.36" etag="7XnDTm8X762LBZ2ZHA7j" version="24.4.7" type="github">
  <diagram name="Страница — 1" id="W7TjclzoCuNUxGsJBfGG">
    <mxGraphModel dx="3981" dy="1982" grid="1" gridSize="10" guides="1" tooltips="1" connect="1" arrows="1" fold="1" page="1" pageScale="1" pageWidth="827" pageHeight="1169" math="0" shadow="0">
      <root>
        <mxCell id="0" />
        <mxCell id="1" parent="0" />
        <mxCell id="TxKIlfsmJBcseSy9-7NY-1" value="Users" style="swimlane;fontStyle=0;childLayout=stackLayout;horizontal=1;startSize=30;horizontalStack=0;resizeParent=1;resizeParentMax=0;resizeLast=0;collapsible=1;marginBottom=0;whiteSpace=wrap;html=1;" parent="1" vertex="1">
          <mxGeometry x="-1320" y="-110" width="140" height="210" as="geometry" />
        </mxCell>
        <mxCell id="TxKIlfsmJBcseSy9-7NY-5" value="PK UserId" style="text;strokeColor=none;fillColor=none;align=left;verticalAlign=middle;spacingLeft=4;spacingRight=4;overflow=hidden;points=[[0,0.5],[1,0.5]];portConstraint=eastwest;rotatable=0;whiteSpace=wrap;html=1;" parent="TxKIlfsmJBcseSy9-7NY-1" vertex="1">
          <mxGeometry y="30" width="140" height="30" as="geometry" />
        </mxCell>
        <mxCell id="TxKIlfsmJBcseSy9-7NY-2" value="UserFirstName" style="text;strokeColor=none;fillColor=none;align=left;verticalAlign=middle;spacingLeft=4;spacingRight=4;overflow=hidden;points=[[0,0.5],[1,0.5]];portConstraint=eastwest;rotatable=0;whiteSpace=wrap;html=1;" parent="TxKIlfsmJBcseSy9-7NY-1" vertex="1">
          <mxGeometry y="60" width="140" height="30" as="geometry" />
        </mxCell>
        <mxCell id="TxKIlfsmJBcseSy9-7NY-3" value="UserLastName" style="text;strokeColor=none;fillColor=none;align=left;verticalAlign=middle;spacingLeft=4;spacingRight=4;overflow=hidden;points=[[0,0.5],[1,0.5]];portConstraint=eastwest;rotatable=0;whiteSpace=wrap;html=1;" parent="TxKIlfsmJBcseSy9-7NY-1" vertex="1">
          <mxGeometry y="90" width="140" height="30" as="geometry" />
        </mxCell>
        <mxCell id="TxKIlfsmJBcseSy9-7NY-4" value="FK UserRole" style="text;strokeColor=none;fillColor=none;align=left;verticalAlign=middle;spacingLeft=4;spacingRight=4;overflow=hidden;points=[[0,0.5],[1,0.5]];portConstraint=eastwest;rotatable=0;whiteSpace=wrap;html=1;" parent="TxKIlfsmJBcseSy9-7NY-1" vertex="1">
          <mxGeometry y="120" width="140" height="30" as="geometry" />
        </mxCell>
        <mxCell id="TxKIlfsmJBcseSy9-7NY-6" value="UserLogin" style="text;strokeColor=none;fillColor=none;align=left;verticalAlign=middle;spacingLeft=4;spacingRight=4;overflow=hidden;points=[[0,0.5],[1,0.5]];portConstraint=eastwest;rotatable=0;whiteSpace=wrap;html=1;" parent="TxKIlfsmJBcseSy9-7NY-1" vertex="1">
          <mxGeometry y="150" width="140" height="30" as="geometry" />
        </mxCell>
        <mxCell id="TxKIlfsmJBcseSy9-7NY-7" value="UserPassword" style="text;strokeColor=none;fillColor=none;align=left;verticalAlign=middle;spacingLeft=4;spacingRight=4;overflow=hidden;points=[[0,0.5],[1,0.5]];portConstraint=eastwest;rotatable=0;whiteSpace=wrap;html=1;" parent="TxKIlfsmJBcseSy9-7NY-1" vertex="1">
          <mxGeometry y="180" width="140" height="30" as="geometry" />
        </mxCell>
        <mxCell id="TxKIlfsmJBcseSy9-7NY-8" value="Role" style="swimlane;fontStyle=0;childLayout=stackLayout;horizontal=1;startSize=30;horizontalStack=0;resizeParent=1;resizeParentMax=0;resizeLast=0;collapsible=1;marginBottom=0;whiteSpace=wrap;html=1;" parent="1" vertex="1">
          <mxGeometry x="-1510" width="140" height="90" as="geometry">
            <mxRectangle x="50" y="160" width="70" height="30" as="alternateBounds" />
          </mxGeometry>
        </mxCell>
        <mxCell id="TxKIlfsmJBcseSy9-7NY-9" value="PK RoleId" style="text;strokeColor=none;fillColor=none;align=left;verticalAlign=middle;spacingLeft=4;spacingRight=4;overflow=hidden;points=[[0,0.5],[1,0.5]];portConstraint=eastwest;rotatable=0;whiteSpace=wrap;html=1;" parent="TxKIlfsmJBcseSy9-7NY-8" vertex="1">
          <mxGeometry y="30" width="140" height="30" as="geometry" />
        </mxCell>
        <mxCell id="TxKIlfsmJBcseSy9-7NY-10" value="RoleName" style="text;strokeColor=none;fillColor=none;align=left;verticalAlign=middle;spacingLeft=4;spacingRight=4;overflow=hidden;points=[[0,0.5],[1,0.5]];portConstraint=eastwest;rotatable=0;whiteSpace=wrap;html=1;" parent="TxKIlfsmJBcseSy9-7NY-8" vertex="1">
          <mxGeometry y="60" width="140" height="30" as="geometry" />
        </mxCell>
        <mxCell id="TxKIlfsmJBcseSy9-7NY-12" style="edgeStyle=orthogonalEdgeStyle;rounded=0;orthogonalLoop=1;jettySize=auto;html=1;" parent="1" source="TxKIlfsmJBcseSy9-7NY-9" target="TxKIlfsmJBcseSy9-7NY-4" edge="1">
          <mxGeometry relative="1" as="geometry" />
        </mxCell>
        <mxCell id="TxKIlfsmJBcseSy9-7NY-61" style="edgeStyle=orthogonalEdgeStyle;rounded=0;orthogonalLoop=1;jettySize=auto;html=1;entryX=1;entryY=0.5;entryDx=0;entryDy=0;" parent="1" source="TxKIlfsmJBcseSy9-7NY-14" target="TxKIlfsmJBcseSy9-7NY-55" edge="1">
          <mxGeometry relative="1" as="geometry">
            <Array as="points">
              <mxPoint x="-860" y="285" />
              <mxPoint x="-860" y="175" />
            </Array>
          </mxGeometry>
        </mxCell>
        <mxCell id="TxKIlfsmJBcseSy9-7NY-14" value="Spares" style="swimlane;fontStyle=0;childLayout=stackLayout;horizontal=1;startSize=30;horizontalStack=0;resizeParent=1;resizeParentMax=0;resizeLast=0;collapsible=1;marginBottom=0;whiteSpace=wrap;html=1;" parent="1" vertex="1">
          <mxGeometry x="-850" y="240" width="140" height="90" as="geometry" />
        </mxCell>
        <mxCell id="TxKIlfsmJBcseSy9-7NY-15" value="PK SparesId" style="text;strokeColor=none;fillColor=none;align=left;verticalAlign=middle;spacingLeft=4;spacingRight=4;overflow=hidden;points=[[0,0.5],[1,0.5]];portConstraint=eastwest;rotatable=0;whiteSpace=wrap;html=1;" parent="TxKIlfsmJBcseSy9-7NY-14" vertex="1">
          <mxGeometry y="30" width="140" height="30" as="geometry" />
        </mxCell>
        <mxCell id="TxKIlfsmJBcseSy9-7NY-16" value="SparesName" style="text;strokeColor=none;fillColor=none;align=left;verticalAlign=middle;spacingLeft=4;spacingRight=4;overflow=hidden;points=[[0,0.5],[1,0.5]];portConstraint=eastwest;rotatable=0;whiteSpace=wrap;html=1;" parent="TxKIlfsmJBcseSy9-7NY-14" vertex="1">
          <mxGeometry y="60" width="140" height="30" as="geometry" />
        </mxCell>
        <mxCell id="TxKIlfsmJBcseSy9-7NY-19" value="Status" style="swimlane;fontStyle=0;childLayout=stackLayout;horizontal=1;startSize=30;horizontalStack=0;resizeParent=1;resizeParentMax=0;resizeLast=0;collapsible=1;marginBottom=0;whiteSpace=wrap;html=1;" parent="1" vertex="1">
          <mxGeometry x="-550" y="140" width="140" height="90" as="geometry" />
        </mxCell>
        <mxCell id="TxKIlfsmJBcseSy9-7NY-20" value="PK StatusId" style="text;strokeColor=none;fillColor=none;align=left;verticalAlign=middle;spacingLeft=4;spacingRight=4;overflow=hidden;points=[[0,0.5],[1,0.5]];portConstraint=eastwest;rotatable=0;whiteSpace=wrap;html=1;" parent="TxKIlfsmJBcseSy9-7NY-19" vertex="1">
          <mxGeometry y="30" width="140" height="30" as="geometry" />
        </mxCell>
        <mxCell id="TxKIlfsmJBcseSy9-7NY-21" value="StatusName" style="text;strokeColor=none;fillColor=none;align=left;verticalAlign=middle;spacingLeft=4;spacingRight=4;overflow=hidden;points=[[0,0.5],[1,0.5]];portConstraint=eastwest;rotatable=0;whiteSpace=wrap;html=1;" parent="TxKIlfsmJBcseSy9-7NY-19" vertex="1">
          <mxGeometry y="60" width="140" height="30" as="geometry" />
        </mxCell>
        <mxCell id="TxKIlfsmJBcseSy9-7NY-23" value="Master" style="swimlane;fontStyle=0;childLayout=stackLayout;horizontal=1;startSize=30;horizontalStack=0;resizeParent=1;resizeParentMax=0;resizeLast=0;collapsible=1;marginBottom=0;whiteSpace=wrap;html=1;" parent="1" vertex="1">
          <mxGeometry x="-1260" y="190" width="140" height="120" as="geometry" />
        </mxCell>
        <mxCell id="TxKIlfsmJBcseSy9-7NY-24" value="PK MasterId" style="text;strokeColor=none;fillColor=none;align=left;verticalAlign=middle;spacingLeft=4;spacingRight=4;overflow=hidden;points=[[0,0.5],[1,0.5]];portConstraint=eastwest;rotatable=0;whiteSpace=wrap;html=1;" parent="TxKIlfsmJBcseSy9-7NY-23" vertex="1">
          <mxGeometry y="30" width="140" height="30" as="geometry" />
        </mxCell>
        <mxCell id="TxKIlfsmJBcseSy9-7NY-25" value="FK MasterSpeciality" style="text;strokeColor=none;fillColor=none;align=left;verticalAlign=middle;spacingLeft=4;spacingRight=4;overflow=hidden;points=[[0,0.5],[1,0.5]];portConstraint=eastwest;rotatable=0;whiteSpace=wrap;html=1;" parent="TxKIlfsmJBcseSy9-7NY-23" vertex="1">
          <mxGeometry y="60" width="140" height="30" as="geometry" />
        </mxCell>
        <mxCell id="TxKIlfsmJBcseSy9-7NY-26" value="FK MasterUser" style="text;strokeColor=none;fillColor=none;align=left;verticalAlign=middle;spacingLeft=4;spacingRight=4;overflow=hidden;points=[[0,0.5],[1,0.5]];portConstraint=eastwest;rotatable=0;whiteSpace=wrap;html=1;" parent="TxKIlfsmJBcseSy9-7NY-23" vertex="1">
          <mxGeometry y="90" width="140" height="30" as="geometry" />
        </mxCell>
        <mxCell id="TxKIlfsmJBcseSy9-7NY-31" style="edgeStyle=orthogonalEdgeStyle;rounded=0;orthogonalLoop=1;jettySize=auto;html=1;entryX=0;entryY=0.5;entryDx=0;entryDy=0;" parent="1" source="TxKIlfsmJBcseSy9-7NY-28" target="TxKIlfsmJBcseSy9-7NY-25" edge="1">
          <mxGeometry relative="1" as="geometry" />
        </mxCell>
        <mxCell id="TxKIlfsmJBcseSy9-7NY-27" value="Speciality" style="swimlane;fontStyle=0;childLayout=stackLayout;horizontal=1;startSize=30;horizontalStack=0;resizeParent=1;resizeParentMax=0;resizeLast=0;collapsible=1;marginBottom=0;whiteSpace=wrap;html=1;" parent="1" vertex="1">
          <mxGeometry x="-1470" y="450" width="140" height="90" as="geometry" />
        </mxCell>
        <mxCell id="TxKIlfsmJBcseSy9-7NY-28" value="PK SpecialityId" style="text;strokeColor=none;fillColor=none;align=left;verticalAlign=middle;spacingLeft=4;spacingRight=4;overflow=hidden;points=[[0,0.5],[1,0.5]];portConstraint=eastwest;rotatable=0;whiteSpace=wrap;html=1;" parent="TxKIlfsmJBcseSy9-7NY-27" vertex="1">
          <mxGeometry y="30" width="140" height="30" as="geometry" />
        </mxCell>
        <mxCell id="TxKIlfsmJBcseSy9-7NY-29" value="SpecialityName" style="text;strokeColor=none;fillColor=none;align=left;verticalAlign=middle;spacingLeft=4;spacingRight=4;overflow=hidden;points=[[0,0.5],[1,0.5]];portConstraint=eastwest;rotatable=0;whiteSpace=wrap;html=1;" parent="TxKIlfsmJBcseSy9-7NY-27" vertex="1">
          <mxGeometry y="60" width="140" height="30" as="geometry" />
        </mxCell>
        <mxCell id="TxKIlfsmJBcseSy9-7NY-33" style="edgeStyle=orthogonalEdgeStyle;rounded=0;orthogonalLoop=1;jettySize=auto;html=1;entryX=0;entryY=0.5;entryDx=0;entryDy=0;" parent="1" source="TxKIlfsmJBcseSy9-7NY-5" target="TxKIlfsmJBcseSy9-7NY-26" edge="1">
          <mxGeometry relative="1" as="geometry" />
        </mxCell>
        <mxCell id="TxKIlfsmJBcseSy9-7NY-63" style="edgeStyle=orthogonalEdgeStyle;rounded=0;orthogonalLoop=1;jettySize=auto;html=1;entryX=1;entryY=0.5;entryDx=0;entryDy=0;" parent="1" source="TxKIlfsmJBcseSy9-7NY-35" target="TxKIlfsmJBcseSy9-7NY-58" edge="1">
          <mxGeometry relative="1" as="geometry">
            <Array as="points">
              <mxPoint x="-870" y="420" />
              <mxPoint x="-870" y="265" />
            </Array>
          </mxGeometry>
        </mxCell>
        <mxCell id="TxKIlfsmJBcseSy9-7NY-35" value="Review" style="swimlane;fontStyle=0;childLayout=stackLayout;horizontal=1;startSize=30;horizontalStack=0;resizeParent=1;resizeParentMax=0;resizeLast=0;collapsible=1;marginBottom=0;whiteSpace=wrap;html=1;" parent="1" vertex="1">
          <mxGeometry x="-1030" y="360" width="140" height="120" as="geometry" />
        </mxCell>
        <mxCell id="TxKIlfsmJBcseSy9-7NY-36" value="PK ReviewId" style="text;strokeColor=none;fillColor=none;align=left;verticalAlign=middle;spacingLeft=4;spacingRight=4;overflow=hidden;points=[[0,0.5],[1,0.5]];portConstraint=eastwest;rotatable=0;whiteSpace=wrap;html=1;" parent="TxKIlfsmJBcseSy9-7NY-35" vertex="1">
          <mxGeometry y="30" width="140" height="30" as="geometry" />
        </mxCell>
        <mxCell id="TxKIlfsmJBcseSy9-7NY-37" value="&lt;div&gt;ReviewText&lt;/div&gt;" style="text;strokeColor=none;fillColor=none;align=left;verticalAlign=middle;spacingLeft=4;spacingRight=4;overflow=hidden;points=[[0,0.5],[1,0.5]];portConstraint=eastwest;rotatable=0;whiteSpace=wrap;html=1;" parent="TxKIlfsmJBcseSy9-7NY-35" vertex="1">
          <mxGeometry y="60" width="140" height="30" as="geometry" />
        </mxCell>
        <mxCell id="TxKIlfsmJBcseSy9-7NY-39" value="ReviewRating" style="text;strokeColor=none;fillColor=none;align=left;verticalAlign=middle;spacingLeft=4;spacingRight=4;overflow=hidden;points=[[0,0.5],[1,0.5]];portConstraint=eastwest;rotatable=0;whiteSpace=wrap;html=1;" parent="TxKIlfsmJBcseSy9-7NY-35" vertex="1">
          <mxGeometry y="90" width="140" height="30" as="geometry" />
        </mxCell>
        <mxCell id="TxKIlfsmJBcseSy9-7NY-40" value="Orders" style="swimlane;fontStyle=0;childLayout=stackLayout;horizontal=1;startSize=30;horizontalStack=0;resizeParent=1;resizeParentMax=0;resizeLast=0;collapsible=1;marginBottom=0;whiteSpace=wrap;html=1;" parent="1" vertex="1">
          <mxGeometry x="-1030" y="-20" width="140" height="300" as="geometry" />
        </mxCell>
        <mxCell id="TxKIlfsmJBcseSy9-7NY-41" value="PK OrderId" style="text;strokeColor=none;fillColor=none;align=left;verticalAlign=middle;spacingLeft=4;spacingRight=4;overflow=hidden;points=[[0,0.5],[1,0.5]];portConstraint=eastwest;rotatable=0;whiteSpace=wrap;html=1;" parent="TxKIlfsmJBcseSy9-7NY-40" vertex="1">
          <mxGeometry y="30" width="140" height="30" as="geometry" />
        </mxCell>
        <mxCell id="TxKIlfsmJBcseSy9-7NY-42" value="FK OrderUser" style="text;strokeColor=none;fillColor=none;align=left;verticalAlign=middle;spacingLeft=4;spacingRight=4;overflow=hidden;points=[[0,0.5],[1,0.5]];portConstraint=eastwest;rotatable=0;whiteSpace=wrap;html=1;" parent="TxKIlfsmJBcseSy9-7NY-40" vertex="1">
          <mxGeometry y="60" width="140" height="30" as="geometry" />
        </mxCell>
        <mxCell id="TxKIlfsmJBcseSy9-7NY-44" value="FK OrderTech" style="text;strokeColor=none;fillColor=none;align=left;verticalAlign=middle;spacingLeft=4;spacingRight=4;overflow=hidden;points=[[0,0.5],[1,0.5]];portConstraint=eastwest;rotatable=0;whiteSpace=wrap;html=1;" parent="TxKIlfsmJBcseSy9-7NY-40" vertex="1">
          <mxGeometry y="90" width="140" height="30" as="geometry" />
        </mxCell>
        <mxCell id="TxKIlfsmJBcseSy9-7NY-49" value="FK OrdeProblem" style="text;strokeColor=none;fillColor=none;align=left;verticalAlign=middle;spacingLeft=4;spacingRight=4;overflow=hidden;points=[[0,0.5],[1,0.5]];portConstraint=eastwest;rotatable=0;whiteSpace=wrap;html=1;" parent="TxKIlfsmJBcseSy9-7NY-40" vertex="1">
          <mxGeometry y="120" width="140" height="30" as="geometry" />
        </mxCell>
        <mxCell id="TxKIlfsmJBcseSy9-7NY-54" value="FK OrderStatus" style="text;strokeColor=none;fillColor=none;align=left;verticalAlign=middle;spacingLeft=4;spacingRight=4;overflow=hidden;points=[[0,0.5],[1,0.5]];portConstraint=eastwest;rotatable=0;whiteSpace=wrap;html=1;" parent="TxKIlfsmJBcseSy9-7NY-40" vertex="1">
          <mxGeometry y="150" width="140" height="30" as="geometry" />
        </mxCell>
        <mxCell id="TxKIlfsmJBcseSy9-7NY-55" value="FK OrderSpares" style="text;strokeColor=none;fillColor=none;align=left;verticalAlign=middle;spacingLeft=4;spacingRight=4;overflow=hidden;points=[[0,0.5],[1,0.5]];portConstraint=eastwest;rotatable=0;whiteSpace=wrap;html=1;" parent="TxKIlfsmJBcseSy9-7NY-40" vertex="1">
          <mxGeometry y="180" width="140" height="30" as="geometry" />
        </mxCell>
        <mxCell id="TxKIlfsmJBcseSy9-7NY-56" value="OrderDescription" style="text;strokeColor=none;fillColor=none;align=left;verticalAlign=middle;spacingLeft=4;spacingRight=4;overflow=hidden;points=[[0,0.5],[1,0.5]];portConstraint=eastwest;rotatable=0;whiteSpace=wrap;html=1;" parent="TxKIlfsmJBcseSy9-7NY-40" vertex="1">
          <mxGeometry y="210" width="140" height="30" as="geometry" />
        </mxCell>
        <mxCell id="TxKIlfsmJBcseSy9-7NY-57" value="FK OrderMaster" style="text;strokeColor=none;fillColor=none;align=left;verticalAlign=middle;spacingLeft=4;spacingRight=4;overflow=hidden;points=[[0,0.5],[1,0.5]];portConstraint=eastwest;rotatable=0;whiteSpace=wrap;html=1;" parent="TxKIlfsmJBcseSy9-7NY-40" vertex="1">
          <mxGeometry y="240" width="140" height="30" as="geometry" />
        </mxCell>
        <mxCell id="TxKIlfsmJBcseSy9-7NY-58" value="FK OrderReview" style="text;strokeColor=none;fillColor=none;align=left;verticalAlign=middle;spacingLeft=4;spacingRight=4;overflow=hidden;points=[[0,0.5],[1,0.5]];portConstraint=eastwest;rotatable=0;whiteSpace=wrap;html=1;" parent="TxKIlfsmJBcseSy9-7NY-40" vertex="1">
          <mxGeometry y="270" width="140" height="30" as="geometry" />
        </mxCell>
        <mxCell id="TxKIlfsmJBcseSy9-7NY-45" value="Tech" style="swimlane;fontStyle=0;childLayout=stackLayout;horizontal=1;startSize=30;horizontalStack=0;resizeParent=1;resizeParentMax=0;resizeLast=0;collapsible=1;marginBottom=0;whiteSpace=wrap;html=1;" parent="1" vertex="1">
          <mxGeometry x="-756" y="-70" width="140" height="90" as="geometry" />
        </mxCell>
        <mxCell id="TxKIlfsmJBcseSy9-7NY-46" value="PK TechId" style="text;strokeColor=none;fillColor=none;align=left;verticalAlign=middle;spacingLeft=4;spacingRight=4;overflow=hidden;points=[[0,0.5],[1,0.5]];portConstraint=eastwest;rotatable=0;whiteSpace=wrap;html=1;" parent="TxKIlfsmJBcseSy9-7NY-45" vertex="1">
          <mxGeometry y="30" width="140" height="30" as="geometry" />
        </mxCell>
        <mxCell id="TxKIlfsmJBcseSy9-7NY-47" value="TechName" style="text;strokeColor=none;fillColor=none;align=left;verticalAlign=middle;spacingLeft=4;spacingRight=4;overflow=hidden;points=[[0,0.5],[1,0.5]];portConstraint=eastwest;rotatable=0;whiteSpace=wrap;html=1;" parent="TxKIlfsmJBcseSy9-7NY-45" vertex="1">
          <mxGeometry y="60" width="140" height="30" as="geometry" />
        </mxCell>
        <mxCell id="TxKIlfsmJBcseSy9-7NY-50" value="Problem" style="swimlane;fontStyle=0;childLayout=stackLayout;horizontal=1;startSize=30;horizontalStack=0;resizeParent=1;resizeParentMax=0;resizeLast=0;collapsible=1;marginBottom=0;whiteSpace=wrap;html=1;" parent="1" vertex="1">
          <mxGeometry x="-710" y="60" width="140" height="90" as="geometry" />
        </mxCell>
        <mxCell id="TxKIlfsmJBcseSy9-7NY-51" value="PK ProblemId" style="text;strokeColor=none;fillColor=none;align=left;verticalAlign=middle;spacingLeft=4;spacingRight=4;overflow=hidden;points=[[0,0.5],[1,0.5]];portConstraint=eastwest;rotatable=0;whiteSpace=wrap;html=1;" parent="TxKIlfsmJBcseSy9-7NY-50" vertex="1">
          <mxGeometry y="30" width="140" height="30" as="geometry" />
        </mxCell>
        <mxCell id="TxKIlfsmJBcseSy9-7NY-52" value="ProblemName" style="text;strokeColor=none;fillColor=none;align=left;verticalAlign=middle;spacingLeft=4;spacingRight=4;overflow=hidden;points=[[0,0.5],[1,0.5]];portConstraint=eastwest;rotatable=0;whiteSpace=wrap;html=1;" parent="TxKIlfsmJBcseSy9-7NY-50" vertex="1">
          <mxGeometry y="60" width="140" height="30" as="geometry" />
        </mxCell>
        <mxCell id="TxKIlfsmJBcseSy9-7NY-59" style="edgeStyle=orthogonalEdgeStyle;rounded=0;orthogonalLoop=1;jettySize=auto;html=1;entryX=1;entryY=0.5;entryDx=0;entryDy=0;" parent="1" source="TxKIlfsmJBcseSy9-7NY-20" target="TxKIlfsmJBcseSy9-7NY-54" edge="1">
          <mxGeometry relative="1" as="geometry" />
        </mxCell>
        <mxCell id="TxKIlfsmJBcseSy9-7NY-60" style="edgeStyle=orthogonalEdgeStyle;rounded=0;orthogonalLoop=1;jettySize=auto;html=1;entryX=1;entryY=0.267;entryDx=0;entryDy=0;entryPerimeter=0;" parent="1" source="TxKIlfsmJBcseSy9-7NY-50" target="TxKIlfsmJBcseSy9-7NY-49" edge="1">
          <mxGeometry relative="1" as="geometry" />
        </mxCell>
        <mxCell id="TxKIlfsmJBcseSy9-7NY-62" style="edgeStyle=orthogonalEdgeStyle;rounded=0;orthogonalLoop=1;jettySize=auto;html=1;entryX=1.007;entryY=0.3;entryDx=0;entryDy=0;entryPerimeter=0;" parent="1" source="TxKIlfsmJBcseSy9-7NY-45" target="TxKIlfsmJBcseSy9-7NY-44" edge="1">
          <mxGeometry relative="1" as="geometry">
            <Array as="points">
              <mxPoint x="-780" y="-25" />
              <mxPoint x="-780" y="79" />
            </Array>
          </mxGeometry>
        </mxCell>
        <mxCell id="TxKIlfsmJBcseSy9-7NY-64" style="edgeStyle=orthogonalEdgeStyle;rounded=0;orthogonalLoop=1;jettySize=auto;html=1;entryX=0;entryY=0.5;entryDx=0;entryDy=0;" parent="1" source="TxKIlfsmJBcseSy9-7NY-24" target="TxKIlfsmJBcseSy9-7NY-57" edge="1">
          <mxGeometry relative="1" as="geometry" />
        </mxCell>
        <mxCell id="TxKIlfsmJBcseSy9-7NY-65" style="edgeStyle=orthogonalEdgeStyle;rounded=0;orthogonalLoop=1;jettySize=auto;html=1;entryX=0;entryY=0.5;entryDx=0;entryDy=0;" parent="1" source="TxKIlfsmJBcseSy9-7NY-5" target="TxKIlfsmJBcseSy9-7NY-42" edge="1">
          <mxGeometry relative="1" as="geometry" />
        </mxCell>
        <mxCell id="TxKIlfsmJBcseSy9-7NY-68" value="" style="rounded=0;whiteSpace=wrap;html=1;fillColor=none;movable=1;resizable=1;rotatable=1;deletable=1;editable=1;locked=0;connectable=1;" parent="1" vertex="1">
          <mxGeometry x="-1610" y="-160" width="1290" height="740" as="geometry" />
        </mxCell>
        <mxCell id="TxKIlfsmJBcseSy9-7NY-75" style="rounded=0;orthogonalLoop=1;jettySize=auto;html=1;entryX=0;entryY=0.5;entryDx=0;entryDy=0;" parent="1" source="TxKIlfsmJBcseSy9-7NY-70" target="TxKIlfsmJBcseSy9-7NY-76" edge="1">
          <mxGeometry relative="1" as="geometry">
            <mxPoint x="-1240" y="870" as="targetPoint" />
          </mxGeometry>
        </mxCell>
        <mxCell id="TxKIlfsmJBcseSy9-7NY-79" style="rounded=0;orthogonalLoop=1;jettySize=auto;html=1;entryX=0;entryY=0.5;entryDx=0;entryDy=0;" parent="1" source="TxKIlfsmJBcseSy9-7NY-70" target="TxKIlfsmJBcseSy9-7NY-80" edge="1">
          <mxGeometry relative="1" as="geometry">
            <mxPoint x="-1280" y="950" as="targetPoint" />
          </mxGeometry>
        </mxCell>
        <mxCell id="TxKIlfsmJBcseSy9-7NY-111" style="rounded=0;orthogonalLoop=1;jettySize=auto;html=1;" parent="1" source="TxKIlfsmJBcseSy9-7NY-70" edge="1">
          <mxGeometry relative="1" as="geometry">
            <mxPoint x="-1290" y="750" as="targetPoint" />
          </mxGeometry>
        </mxCell>
        <mxCell id="TxKIlfsmJBcseSy9-7NY-70" value="Клиент" style="shape=umlActor;verticalLabelPosition=bottom;verticalAlign=top;html=1;outlineConnect=0;" parent="1" vertex="1">
          <mxGeometry x="-1460" y="850" width="30" height="60" as="geometry" />
        </mxCell>
        <mxCell id="TxKIlfsmJBcseSy9-7NY-76" value="Подача заявки" style="ellipse;whiteSpace=wrap;html=1;" parent="1" vertex="1">
          <mxGeometry x="-1310" y="810" width="120" height="80" as="geometry" />
        </mxCell>
        <mxCell id="TxKIlfsmJBcseSy9-7NY-78" style="rounded=0;orthogonalLoop=1;jettySize=auto;html=1;entryX=1;entryY=0.5;entryDx=0;entryDy=0;" parent="1" source="TxKIlfsmJBcseSy9-7NY-77" target="TxKIlfsmJBcseSy9-7NY-76" edge="1">
          <mxGeometry relative="1" as="geometry" />
        </mxCell>
        <mxCell id="TxKIlfsmJBcseSy9-7NY-87" style="rounded=0;orthogonalLoop=1;jettySize=auto;html=1;entryX=0.5;entryY=0;entryDx=0;entryDy=0;" parent="1" source="TxKIlfsmJBcseSy9-7NY-77" target="TxKIlfsmJBcseSy9-7NY-86" edge="1">
          <mxGeometry relative="1" as="geometry" />
        </mxCell>
        <mxCell id="TxKIlfsmJBcseSy9-7NY-91" style="rounded=0;orthogonalLoop=1;jettySize=auto;html=1;entryX=0.997;entryY=0.427;entryDx=0;entryDy=0;entryPerimeter=0;" parent="1" source="TxKIlfsmJBcseSy9-7NY-77" target="TxKIlfsmJBcseSy9-7NY-92" edge="1">
          <mxGeometry relative="1" as="geometry">
            <mxPoint x="-910" y="1180" as="targetPoint" />
          </mxGeometry>
        </mxCell>
        <mxCell id="TxKIlfsmJBcseSy9-7NY-101" style="rounded=0;orthogonalLoop=1;jettySize=auto;html=1;entryX=1;entryY=0;entryDx=0;entryDy=0;" parent="1" source="TxKIlfsmJBcseSy9-7NY-77" target="TxKIlfsmJBcseSy9-7NY-102" edge="1">
          <mxGeometry relative="1" as="geometry">
            <mxPoint x="-880" y="1260" as="targetPoint" />
          </mxGeometry>
        </mxCell>
        <mxCell id="TxKIlfsmJBcseSy9-7NY-113" style="rounded=0;orthogonalLoop=1;jettySize=auto;html=1;entryX=1;entryY=0.5;entryDx=0;entryDy=0;" parent="1" source="TxKIlfsmJBcseSy9-7NY-77" target="TxKIlfsmJBcseSy9-7NY-112" edge="1">
          <mxGeometry relative="1" as="geometry" />
        </mxCell>
        <mxCell id="TxKIlfsmJBcseSy9-7NY-115" style="rounded=0;orthogonalLoop=1;jettySize=auto;html=1;" parent="1" source="TxKIlfsmJBcseSy9-7NY-77" target="TxKIlfsmJBcseSy9-7NY-114" edge="1">
          <mxGeometry relative="1" as="geometry" />
        </mxCell>
        <mxCell id="TxKIlfsmJBcseSy9-7NY-77" value="Менджер" style="shape=umlActor;verticalLabelPosition=bottom;verticalAlign=top;html=1;outlineConnect=0;" parent="1" vertex="1">
          <mxGeometry x="-860" y="840" width="30" height="60" as="geometry" />
        </mxCell>
        <mxCell id="TxKIlfsmJBcseSy9-7NY-80" value="Звпрос доп информации" style="ellipse;whiteSpace=wrap;html=1;" parent="1" vertex="1">
          <mxGeometry x="-1310" y="910" width="120" height="80" as="geometry" />
        </mxCell>
        <mxCell id="TxKIlfsmJBcseSy9-7NY-84" style="rounded=0;orthogonalLoop=1;jettySize=auto;html=1;entryX=0.5;entryY=1;entryDx=0;entryDy=0;" parent="1" source="TxKIlfsmJBcseSy9-7NY-81" target="TxKIlfsmJBcseSy9-7NY-80" edge="1">
          <mxGeometry relative="1" as="geometry" />
        </mxCell>
        <mxCell id="TxKIlfsmJBcseSy9-7NY-88" style="rounded=0;orthogonalLoop=1;jettySize=auto;html=1;entryX=0;entryY=0.5;entryDx=0;entryDy=0;" parent="1" source="TxKIlfsmJBcseSy9-7NY-81" target="TxKIlfsmJBcseSy9-7NY-86" edge="1">
          <mxGeometry relative="1" as="geometry" />
        </mxCell>
        <mxCell id="TxKIlfsmJBcseSy9-7NY-93" style="rounded=0;orthogonalLoop=1;jettySize=auto;html=1;entryX=0;entryY=0.5;entryDx=0;entryDy=0;" parent="1" source="TxKIlfsmJBcseSy9-7NY-81" target="TxKIlfsmJBcseSy9-7NY-92" edge="1">
          <mxGeometry relative="1" as="geometry" />
        </mxCell>
        <mxCell id="TxKIlfsmJBcseSy9-7NY-103" style="rounded=0;orthogonalLoop=1;jettySize=auto;html=1;entryX=0;entryY=0.5;entryDx=0;entryDy=0;" parent="1" source="TxKIlfsmJBcseSy9-7NY-81" target="TxKIlfsmJBcseSy9-7NY-102" edge="1">
          <mxGeometry relative="1" as="geometry" />
        </mxCell>
        <mxCell id="TxKIlfsmJBcseSy9-7NY-107" style="rounded=0;orthogonalLoop=1;jettySize=auto;html=1;entryX=0;entryY=0.5;entryDx=0;entryDy=0;" parent="1" source="TxKIlfsmJBcseSy9-7NY-81" target="TxKIlfsmJBcseSy9-7NY-106" edge="1">
          <mxGeometry relative="1" as="geometry" />
        </mxCell>
        <mxCell id="TxKIlfsmJBcseSy9-7NY-81" value="Мастер" style="shape=umlActor;verticalLabelPosition=bottom;verticalAlign=top;html=1;outlineConnect=0;" parent="1" vertex="1">
          <mxGeometry x="-1460" y="1039" width="30" height="60" as="geometry" />
        </mxCell>
        <mxCell id="TxKIlfsmJBcseSy9-7NY-85" style="rounded=0;orthogonalLoop=1;jettySize=auto;html=1;entryX=0.995;entryY=0.441;entryDx=0;entryDy=0;entryPerimeter=0;" parent="1" source="TxKIlfsmJBcseSy9-7NY-77" target="TxKIlfsmJBcseSy9-7NY-80" edge="1">
          <mxGeometry relative="1" as="geometry" />
        </mxCell>
        <mxCell id="TxKIlfsmJBcseSy9-7NY-89" style="rounded=0;orthogonalLoop=1;jettySize=auto;html=1;entryX=1;entryY=1;entryDx=0;entryDy=0;dashed=1;" parent="1" source="TxKIlfsmJBcseSy9-7NY-86" target="TxKIlfsmJBcseSy9-7NY-80" edge="1">
          <mxGeometry relative="1" as="geometry" />
        </mxCell>
        <mxCell id="TxKIlfsmJBcseSy9-7NY-90" value="include" style="edgeLabel;html=1;align=center;verticalAlign=middle;resizable=0;points=[];" parent="TxKIlfsmJBcseSy9-7NY-89" connectable="0" vertex="1">
          <mxGeometry x="-0.1102" y="-2" relative="1" as="geometry">
            <mxPoint as="offset" />
          </mxGeometry>
        </mxCell>
        <mxCell id="TxKIlfsmJBcseSy9-7NY-94" style="rounded=0;orthogonalLoop=1;jettySize=auto;html=1;entryX=0.5;entryY=0;entryDx=0;entryDy=0;dashed=1;" parent="1" source="TxKIlfsmJBcseSy9-7NY-86" target="TxKIlfsmJBcseSy9-7NY-92" edge="1">
          <mxGeometry relative="1" as="geometry" />
        </mxCell>
        <mxCell id="TxKIlfsmJBcseSy9-7NY-95" value="Extend" style="edgeLabel;html=1;align=center;verticalAlign=middle;resizable=0;points=[];" parent="TxKIlfsmJBcseSy9-7NY-94" connectable="0" vertex="1">
          <mxGeometry x="-0.128" y="-1" relative="1" as="geometry">
            <mxPoint as="offset" />
          </mxGeometry>
        </mxCell>
        <mxCell id="TxKIlfsmJBcseSy9-7NY-86" value="Анализ проблемы" style="ellipse;whiteSpace=wrap;html=1;" parent="1" vertex="1">
          <mxGeometry x="-1170" y="1019" width="120" height="80" as="geometry" />
        </mxCell>
        <mxCell id="TxKIlfsmJBcseSy9-7NY-120" style="rounded=0;orthogonalLoop=1;jettySize=auto;html=1;entryX=0.5;entryY=1;entryDx=0;entryDy=0;dashed=1;" parent="1" source="TxKIlfsmJBcseSy9-7NY-92" target="TxKIlfsmJBcseSy9-7NY-119" edge="1">
          <mxGeometry relative="1" as="geometry" />
        </mxCell>
        <mxCell id="TxKIlfsmJBcseSy9-7NY-121" value="include" style="edgeLabel;html=1;align=center;verticalAlign=middle;resizable=0;points=[];" parent="TxKIlfsmJBcseSy9-7NY-120" connectable="0" vertex="1">
          <mxGeometry x="-0.1151" y="1" relative="1" as="geometry">
            <mxPoint as="offset" />
          </mxGeometry>
        </mxCell>
        <mxCell id="TxKIlfsmJBcseSy9-7NY-92" value="Поиск мастера" style="ellipse;whiteSpace=wrap;html=1;" parent="1" vertex="1">
          <mxGeometry x="-1100" y="1140" width="120" height="80" as="geometry" />
        </mxCell>
        <mxCell id="TxKIlfsmJBcseSy9-7NY-104" style="rounded=0;orthogonalLoop=1;jettySize=auto;html=1;entryX=1;entryY=0.5;entryDx=0;entryDy=0;" parent="1" source="TxKIlfsmJBcseSy9-7NY-98" target="TxKIlfsmJBcseSy9-7NY-102" edge="1">
          <mxGeometry relative="1" as="geometry" />
        </mxCell>
        <mxCell id="TxKIlfsmJBcseSy9-7NY-108" style="rounded=0;orthogonalLoop=1;jettySize=auto;html=1;entryX=1;entryY=0.5;entryDx=0;entryDy=0;" parent="1" source="TxKIlfsmJBcseSy9-7NY-98" target="TxKIlfsmJBcseSy9-7NY-106" edge="1">
          <mxGeometry relative="1" as="geometry" />
        </mxCell>
        <mxCell id="TxKIlfsmJBcseSy9-7NY-109" style="rounded=0;orthogonalLoop=1;jettySize=auto;html=1;entryX=0.5;entryY=1;entryDx=0;entryDy=0;" parent="1" source="TxKIlfsmJBcseSy9-7NY-98" target="TxKIlfsmJBcseSy9-7NY-105" edge="1">
          <mxGeometry relative="1" as="geometry" />
        </mxCell>
        <mxCell id="TxKIlfsmJBcseSy9-7NY-116" style="rounded=0;orthogonalLoop=1;jettySize=auto;html=1;" parent="1" source="TxKIlfsmJBcseSy9-7NY-98" target="TxKIlfsmJBcseSy9-7NY-114" edge="1">
          <mxGeometry relative="1" as="geometry" />
        </mxCell>
        <mxCell id="TxKIlfsmJBcseSy9-7NY-98" value="Администратор" style="shape=umlActor;verticalLabelPosition=bottom;verticalAlign=top;html=1;outlineConnect=0;" parent="1" vertex="1">
          <mxGeometry x="-750" y="1120" width="30" height="60" as="geometry" />
        </mxCell>
        <mxCell id="TxKIlfsmJBcseSy9-7NY-102" value="&lt;div&gt;Изменение статуса&lt;/div&gt;&lt;div&gt;заявки&lt;br&gt;&lt;/div&gt;" style="ellipse;whiteSpace=wrap;html=1;" parent="1" vertex="1">
          <mxGeometry x="-1060" y="1250" width="120" height="80" as="geometry" />
        </mxCell>
        <mxCell id="TxKIlfsmJBcseSy9-7NY-105" value="&lt;div&gt;Редактирование&lt;/div&gt;&lt;div&gt;заявки&lt;br&gt;&lt;/div&gt;" style="ellipse;whiteSpace=wrap;html=1;" parent="1" vertex="1">
          <mxGeometry x="-1120" y="1440" width="120" height="80" as="geometry" />
        </mxCell>
        <mxCell id="TxKIlfsmJBcseSy9-7NY-106" value="Заказ запчастей" style="ellipse;whiteSpace=wrap;html=1;" parent="1" vertex="1">
          <mxGeometry x="-1090" y="1340" width="120" height="80" as="geometry" />
        </mxCell>
        <mxCell id="TxKIlfsmJBcseSy9-7NY-110" style="rounded=0;orthogonalLoop=1;jettySize=auto;html=1;entryX=0.006;entryY=0.396;entryDx=0;entryDy=0;entryPerimeter=0;" parent="1" source="TxKIlfsmJBcseSy9-7NY-81" target="TxKIlfsmJBcseSy9-7NY-105" edge="1">
          <mxGeometry relative="1" as="geometry" />
        </mxCell>
        <mxCell id="TxKIlfsmJBcseSy9-7NY-112" value="&lt;div&gt;Запрос обратной&lt;/div&gt;&lt;div&gt;связи&lt;br&gt;&lt;/div&gt;" style="ellipse;whiteSpace=wrap;html=1;" parent="1" vertex="1">
          <mxGeometry x="-1280" y="700" width="120" height="80" as="geometry" />
        </mxCell>
        <mxCell id="TxKIlfsmJBcseSy9-7NY-114" value="&lt;div&gt;Просмотр&lt;/div&gt;&lt;div&gt;отзывов&lt;br&gt;&lt;/div&gt;" style="ellipse;whiteSpace=wrap;html=1;" parent="1" vertex="1">
          <mxGeometry x="-700" y="939" width="120" height="80" as="geometry" />
        </mxCell>
        <mxCell id="TxKIlfsmJBcseSy9-7NY-119" value="&lt;div&gt;Поиск доп.&lt;/div&gt;&lt;div&gt;мастера&lt;br&gt;&lt;/div&gt;" style="ellipse;whiteSpace=wrap;html=1;" parent="1" vertex="1">
          <mxGeometry x="-1040" y="970" width="120" height="80" as="geometry" />
        </mxCell>
        <mxCell id="TxKIlfsmJBcseSy9-7NY-122" value="" style="rounded=0;whiteSpace=wrap;html=1;fillColor=none;" parent="1" vertex="1">
          <mxGeometry x="-1610" y="670" width="1290" height="870" as="geometry" />
        </mxCell>
        <mxCell id="5L1j_ti2SMCMe_xtiJny-1" value="" style="rounded=0;whiteSpace=wrap;html=1;fillColor=none;movable=1;resizable=1;rotatable=1;deletable=1;editable=1;locked=0;connectable=1;" parent="1" vertex="1">
          <mxGeometry x="-1610" y="-160" width="1290" height="740" as="geometry" />
        </mxCell>
        <mxCell id="u1EqqT7GKLaA5iM566Qm-1" value="UseCase" style="text;html=1;align=center;verticalAlign=middle;resizable=0;points=[];autosize=1;strokeColor=none;fillColor=none;strokeWidth=1;fontSize=64;" parent="1" vertex="1">
          <mxGeometry x="-1120" y="588" width="290" height="90" as="geometry" />
        </mxCell>
        <mxCell id="u1EqqT7GKLaA5iM566Qm-3" value="ER Diagram" style="text;html=1;align=center;verticalAlign=middle;resizable=0;points=[];autosize=1;strokeColor=none;fillColor=none;strokeWidth=1;fontSize=64;" parent="1" vertex="1">
          <mxGeometry x="-1150" y="-280" width="370" height="90" as="geometry" />
        </mxCell>
        <mxCell id="u1EqqT7GKLaA5iM566Qm-5" value="Блок-схема общая" style="text;html=1;align=center;verticalAlign=middle;resizable=0;points=[];autosize=1;strokeColor=none;fillColor=none;strokeWidth=1;fontSize=64;" parent="1" vertex="1">
          <mxGeometry x="490" y="-310" width="580" height="90" as="geometry" />
        </mxCell>
        <mxCell id="u1EqqT7GKLaA5iM566Qm-10" style="edgeStyle=orthogonalEdgeStyle;rounded=0;orthogonalLoop=1;jettySize=auto;html=1;entryX=0.5;entryY=0;entryDx=0;entryDy=0;" parent="1" source="u1EqqT7GKLaA5iM566Qm-8" target="u1EqqT7GKLaA5iM566Qm-9" edge="1">
          <mxGeometry relative="1" as="geometry" />
        </mxCell>
        <mxCell id="u1EqqT7GKLaA5iM566Qm-8" value="Начало" style="strokeWidth=2;html=1;shape=mxgraph.flowchart.terminator;whiteSpace=wrap;" parent="1" vertex="1">
          <mxGeometry x="720" y="-180" width="150" height="60" as="geometry" />
        </mxCell>
        <mxCell id="u1EqqT7GKLaA5iM566Qm-14" value="" style="edgeStyle=orthogonalEdgeStyle;rounded=0;orthogonalLoop=1;jettySize=auto;html=1;" parent="1" source="u1EqqT7GKLaA5iM566Qm-9" target="u1EqqT7GKLaA5iM566Qm-13" edge="1">
          <mxGeometry relative="1" as="geometry" />
        </mxCell>
        <mxCell id="u1EqqT7GKLaA5iM566Qm-9" value="Заявка на ремонт" style="verticalLabelPosition=bottom;verticalAlign=top;html=1;shape=process;whiteSpace=wrap;rounded=1;size=0.14;arcSize=6;" parent="1" vertex="1">
          <mxGeometry x="720" y="-80" width="150" height="50" as="geometry" />
        </mxCell>
        <mxCell id="u1EqqT7GKLaA5iM566Qm-12" style="edgeStyle=orthogonalEdgeStyle;rounded=0;orthogonalLoop=1;jettySize=auto;html=1;entryX=0;entryY=0.5;entryDx=0;entryDy=0;" parent="1" source="u1EqqT7GKLaA5iM566Qm-11" target="u1EqqT7GKLaA5iM566Qm-9" edge="1">
          <mxGeometry relative="1" as="geometry" />
        </mxCell>
        <mxCell id="u1EqqT7GKLaA5iM566Qm-11" value="&lt;div&gt;&lt;br&gt;&lt;/div&gt;&lt;div&gt;Данные о &lt;br&gt;&lt;/div&gt;&lt;div&gt;ремонте&lt;br&gt;&lt;/div&gt;" style="html=1;strokeWidth=2;shape=manualInput;whiteSpace=wrap;rounded=1;size=26;arcSize=11;" parent="1" vertex="1">
          <mxGeometry x="500" y="-94.37" width="180" height="78.75" as="geometry" />
        </mxCell>
        <mxCell id="u1EqqT7GKLaA5iM566Qm-13" value="Регистрация заявки" style="verticalLabelPosition=bottom;verticalAlign=top;html=1;shape=process;whiteSpace=wrap;rounded=1;size=0.14;arcSize=6;" parent="1" vertex="1">
          <mxGeometry x="720" y="50" width="150" height="50" as="geometry" />
        </mxCell>
        <mxCell id="u1EqqT7GKLaA5iM566Qm-15" value="&lt;div&gt;Идентификационный&lt;/div&gt;&lt;div&gt;номер &lt;br&gt;&lt;/div&gt;" style="strokeWidth=2;html=1;shape=mxgraph.flowchart.stored_data;whiteSpace=wrap;" parent="1" vertex="1">
          <mxGeometry x="710" y="170" width="170" height="60" as="geometry" />
        </mxCell>
        <mxCell id="u1EqqT7GKLaA5iM566Qm-16" style="edgeStyle=orthogonalEdgeStyle;rounded=0;orthogonalLoop=1;jettySize=auto;html=1;entryX=0.5;entryY=0;entryDx=0;entryDy=0;entryPerimeter=0;" parent="1" source="u1EqqT7GKLaA5iM566Qm-13" target="u1EqqT7GKLaA5iM566Qm-15" edge="1">
          <mxGeometry relative="1" as="geometry" />
        </mxCell>
        <mxCell id="u1EqqT7GKLaA5iM566Qm-21" style="edgeStyle=orthogonalEdgeStyle;rounded=0;orthogonalLoop=1;jettySize=auto;html=1;entryX=0;entryY=0.5;entryDx=0;entryDy=0;" parent="1" source="u1EqqT7GKLaA5iM566Qm-17" target="u1EqqT7GKLaA5iM566Qm-13" edge="1">
          <mxGeometry relative="1" as="geometry" />
        </mxCell>
        <mxCell id="u1EqqT7GKLaA5iM566Qm-17" value="&lt;div&gt;&lt;br&gt;&lt;/div&gt;&lt;div&gt;Приоритет&lt;/div&gt;&lt;div&gt;заявки&lt;br&gt;&lt;/div&gt;" style="html=1;strokeWidth=2;shape=manualInput;whiteSpace=wrap;rounded=1;size=26;arcSize=11;" parent="1" vertex="1">
          <mxGeometry x="510" y="35" width="170" height="80" as="geometry" />
        </mxCell>
        <mxCell id="iy6-nLoN1OJl4ZV8e4Iy-2" style="edgeStyle=orthogonalEdgeStyle;rounded=0;orthogonalLoop=1;jettySize=auto;html=1;entryX=0.5;entryY=0;entryDx=0;entryDy=0;" parent="1" source="u1EqqT7GKLaA5iM566Qm-19" target="iy6-nLoN1OJl4ZV8e4Iy-1" edge="1">
          <mxGeometry relative="1" as="geometry" />
        </mxCell>
        <mxCell id="u1EqqT7GKLaA5iM566Qm-19" value="&lt;div&gt;&lt;br&gt;&lt;/div&gt;&lt;div&gt;Система учёта&lt;/div&gt;&lt;div&gt;заявок&lt;br&gt;&lt;/div&gt;" style="strokeWidth=2;html=1;shape=mxgraph.flowchart.database;whiteSpace=wrap;" parent="1" vertex="1">
          <mxGeometry x="715" y="280" width="160" height="70" as="geometry" />
        </mxCell>
        <mxCell id="u1EqqT7GKLaA5iM566Qm-22" style="edgeStyle=orthogonalEdgeStyle;rounded=0;orthogonalLoop=1;jettySize=auto;html=1;entryX=0.5;entryY=0;entryDx=0;entryDy=0;entryPerimeter=0;" parent="1" source="u1EqqT7GKLaA5iM566Qm-15" target="u1EqqT7GKLaA5iM566Qm-19" edge="1">
          <mxGeometry relative="1" as="geometry" />
        </mxCell>
        <mxCell id="iy6-nLoN1OJl4ZV8e4Iy-7" style="edgeStyle=orthogonalEdgeStyle;rounded=0;orthogonalLoop=1;jettySize=auto;html=1;" parent="1" source="iy6-nLoN1OJl4ZV8e4Iy-1" target="iy6-nLoN1OJl4ZV8e4Iy-6" edge="1">
          <mxGeometry relative="1" as="geometry" />
        </mxCell>
        <mxCell id="iy6-nLoN1OJl4ZV8e4Iy-1" value="Обработка заявки" style="verticalLabelPosition=bottom;verticalAlign=top;html=1;shape=process;whiteSpace=wrap;rounded=1;size=0.14;arcSize=6;" parent="1" vertex="1">
          <mxGeometry x="720" y="400" width="150" height="50" as="geometry" />
        </mxCell>
        <mxCell id="iy6-nLoN1OJl4ZV8e4Iy-6" value="Анализ заявки" style="verticalLabelPosition=bottom;verticalAlign=top;html=1;shape=process;whiteSpace=wrap;rounded=1;size=0.14;arcSize=6;" parent="1" vertex="1">
          <mxGeometry x="720" y="510" width="150" height="50" as="geometry" />
        </mxCell>
        <mxCell id="iy6-nLoN1OJl4ZV8e4Iy-8" value="&lt;div&gt;&lt;br&gt;&lt;/div&gt;&lt;div&gt;Мастер&lt;/div&gt;" style="html=1;strokeWidth=2;shape=manualInput;whiteSpace=wrap;rounded=1;size=26;arcSize=11;" parent="1" vertex="1">
          <mxGeometry x="710" y="600" width="170" height="80" as="geometry" />
        </mxCell>
        <mxCell id="iy6-nLoN1OJl4ZV8e4Iy-9" style="edgeStyle=orthogonalEdgeStyle;rounded=0;orthogonalLoop=1;jettySize=auto;html=1;entryX=0.505;entryY=0.199;entryDx=0;entryDy=0;entryPerimeter=0;" parent="1" source="iy6-nLoN1OJl4ZV8e4Iy-6" target="iy6-nLoN1OJl4ZV8e4Iy-8" edge="1">
          <mxGeometry relative="1" as="geometry" />
        </mxCell>
        <mxCell id="iy6-nLoN1OJl4ZV8e4Iy-14" style="edgeStyle=orthogonalEdgeStyle;rounded=0;orthogonalLoop=1;jettySize=auto;html=1;entryX=0.5;entryY=0;entryDx=0;entryDy=0;" parent="1" source="iy6-nLoN1OJl4ZV8e4Iy-10" target="iy6-nLoN1OJl4ZV8e4Iy-13" edge="1">
          <mxGeometry relative="1" as="geometry" />
        </mxCell>
        <mxCell id="iy6-nLoN1OJl4ZV8e4Iy-15" value="Да" style="edgeLabel;html=1;align=center;verticalAlign=middle;resizable=0;points=[];" parent="iy6-nLoN1OJl4ZV8e4Iy-14" connectable="0" vertex="1">
          <mxGeometry x="-0.4962" y="-2" relative="1" as="geometry">
            <mxPoint as="offset" />
          </mxGeometry>
        </mxCell>
        <mxCell id="iy6-nLoN1OJl4ZV8e4Iy-22" style="edgeStyle=orthogonalEdgeStyle;rounded=0;orthogonalLoop=1;jettySize=auto;html=1;endArrow=none;endFill=0;" parent="1" source="iy6-nLoN1OJl4ZV8e4Iy-10" edge="1">
          <mxGeometry relative="1" as="geometry">
            <mxPoint x="795" y="980" as="targetPoint" />
            <Array as="points">
              <mxPoint x="650" y="770" />
              <mxPoint x="650" y="940" />
              <mxPoint x="795" y="940" />
            </Array>
          </mxGeometry>
        </mxCell>
        <mxCell id="iy6-nLoN1OJl4ZV8e4Iy-24" value="Нет" style="edgeLabel;html=1;align=center;verticalAlign=middle;resizable=0;points=[];" parent="iy6-nLoN1OJl4ZV8e4Iy-22" connectable="0" vertex="1">
          <mxGeometry x="-0.8149" y="-2" relative="1" as="geometry">
            <mxPoint x="1" as="offset" />
          </mxGeometry>
        </mxCell>
        <mxCell id="iy6-nLoN1OJl4ZV8e4Iy-10" value="&lt;div&gt;Нужна ли&lt;/div&gt;&lt;div&gt;доп.&amp;nbsp;&lt;/div&gt;&lt;div&gt;инфрмация?&lt;/div&gt;" style="strokeWidth=2;html=1;shape=mxgraph.flowchart.decision;whiteSpace=wrap;" parent="1" vertex="1">
          <mxGeometry x="720" y="720" width="150" height="100" as="geometry" />
        </mxCell>
        <mxCell id="iy6-nLoN1OJl4ZV8e4Iy-11" style="edgeStyle=orthogonalEdgeStyle;rounded=0;orthogonalLoop=1;jettySize=auto;html=1;entryX=0.5;entryY=0;entryDx=0;entryDy=0;entryPerimeter=0;" parent="1" source="iy6-nLoN1OJl4ZV8e4Iy-8" target="iy6-nLoN1OJl4ZV8e4Iy-10" edge="1">
          <mxGeometry relative="1" as="geometry" />
        </mxCell>
        <mxCell id="iy6-nLoN1OJl4ZV8e4Iy-21" style="edgeStyle=orthogonalEdgeStyle;rounded=0;orthogonalLoop=1;jettySize=auto;html=1;entryX=0.5;entryY=0;entryDx=0;entryDy=0;" parent="1" source="iy6-nLoN1OJl4ZV8e4Iy-13" target="iy6-nLoN1OJl4ZV8e4Iy-20" edge="1">
          <mxGeometry relative="1" as="geometry">
            <Array as="points">
              <mxPoint x="955" y="930" />
              <mxPoint x="795" y="930" />
            </Array>
          </mxGeometry>
        </mxCell>
        <mxCell id="iy6-nLoN1OJl4ZV8e4Iy-13" value="Уточнение проблемы" style="verticalLabelPosition=bottom;verticalAlign=top;html=1;shape=process;whiteSpace=wrap;rounded=1;size=0.14;arcSize=6;" parent="1" vertex="1">
          <mxGeometry x="880" y="855" width="150" height="50" as="geometry" />
        </mxCell>
        <mxCell id="iy6-nLoN1OJl4ZV8e4Iy-20" value="Исполнение заявки" style="verticalLabelPosition=bottom;verticalAlign=top;html=1;shape=process;whiteSpace=wrap;rounded=1;size=0.14;arcSize=6;" parent="1" vertex="1">
          <mxGeometry x="720" y="985" width="150" height="50" as="geometry" />
        </mxCell>
        <mxCell id="iy6-nLoN1OJl4ZV8e4Iy-28" style="edgeStyle=orthogonalEdgeStyle;rounded=0;orthogonalLoop=1;jettySize=auto;html=1;entryX=0.5;entryY=0;entryDx=0;entryDy=0;" parent="1" source="iy6-nLoN1OJl4ZV8e4Iy-25" target="iy6-nLoN1OJl4ZV8e4Iy-27" edge="1">
          <mxGeometry relative="1" as="geometry" />
        </mxCell>
        <mxCell id="iy6-nLoN1OJl4ZV8e4Iy-29" value="Да" style="edgeLabel;html=1;align=center;verticalAlign=middle;resizable=0;points=[];" parent="iy6-nLoN1OJl4ZV8e4Iy-28" connectable="0" vertex="1">
          <mxGeometry x="-0.7258" y="-1" relative="1" as="geometry">
            <mxPoint as="offset" />
          </mxGeometry>
        </mxCell>
        <mxCell id="iy6-nLoN1OJl4ZV8e4Iy-25" value="&lt;div&gt;Нужны ли&lt;/div&gt;&lt;div&gt;запчасти?&lt;br&gt;&lt;/div&gt;" style="strokeWidth=2;html=1;shape=mxgraph.flowchart.decision;whiteSpace=wrap;" parent="1" vertex="1">
          <mxGeometry x="720" y="1110" width="150" height="100" as="geometry" />
        </mxCell>
        <mxCell id="iy6-nLoN1OJl4ZV8e4Iy-26" style="edgeStyle=orthogonalEdgeStyle;rounded=0;orthogonalLoop=1;jettySize=auto;html=1;entryX=0.5;entryY=0;entryDx=0;entryDy=0;entryPerimeter=0;" parent="1" source="iy6-nLoN1OJl4ZV8e4Iy-20" target="iy6-nLoN1OJl4ZV8e4Iy-25" edge="1">
          <mxGeometry relative="1" as="geometry" />
        </mxCell>
        <mxCell id="iy6-nLoN1OJl4ZV8e4Iy-31" style="edgeStyle=orthogonalEdgeStyle;rounded=0;orthogonalLoop=1;jettySize=auto;html=1;" parent="1" source="iy6-nLoN1OJl4ZV8e4Iy-27" target="iy6-nLoN1OJl4ZV8e4Iy-30" edge="1">
          <mxGeometry relative="1" as="geometry">
            <Array as="points">
              <mxPoint x="955" y="1370" />
              <mxPoint x="795" y="1370" />
            </Array>
          </mxGeometry>
        </mxCell>
        <mxCell id="iy6-nLoN1OJl4ZV8e4Iy-27" value="Доставка запчастей" style="verticalLabelPosition=bottom;verticalAlign=top;html=1;shape=process;whiteSpace=wrap;rounded=1;size=0.14;arcSize=6;" parent="1" vertex="1">
          <mxGeometry x="880" y="1250" width="150" height="50" as="geometry" />
        </mxCell>
        <mxCell id="iy6-nLoN1OJl4ZV8e4Iy-35" style="edgeStyle=orthogonalEdgeStyle;rounded=0;orthogonalLoop=1;jettySize=auto;html=1;entryX=0.5;entryY=0;entryDx=0;entryDy=0;" parent="1" source="iy6-nLoN1OJl4ZV8e4Iy-30" target="iy6-nLoN1OJl4ZV8e4Iy-34" edge="1">
          <mxGeometry relative="1" as="geometry" />
        </mxCell>
        <mxCell id="iy6-nLoN1OJl4ZV8e4Iy-36" value="Да" style="edgeLabel;html=1;align=center;verticalAlign=middle;resizable=0;points=[];" parent="iy6-nLoN1OJl4ZV8e4Iy-35" connectable="0" vertex="1">
          <mxGeometry x="-0.6801" y="-1" relative="1" as="geometry">
            <mxPoint as="offset" />
          </mxGeometry>
        </mxCell>
        <mxCell id="iy6-nLoN1OJl4ZV8e4Iy-41" style="edgeStyle=orthogonalEdgeStyle;rounded=0;orthogonalLoop=1;jettySize=auto;html=1;endArrow=none;endFill=0;" parent="1" source="iy6-nLoN1OJl4ZV8e4Iy-30" edge="1">
          <mxGeometry relative="1" as="geometry">
            <mxPoint x="795" y="1750" as="targetPoint" />
            <Array as="points">
              <mxPoint x="640" y="1450" />
              <mxPoint x="640" y="1730" />
              <mxPoint x="795" y="1730" />
            </Array>
          </mxGeometry>
        </mxCell>
        <mxCell id="iy6-nLoN1OJl4ZV8e4Iy-42" value="Нет" style="edgeLabel;html=1;align=center;verticalAlign=middle;resizable=0;points=[];" parent="iy6-nLoN1OJl4ZV8e4Iy-41" connectable="0" vertex="1">
          <mxGeometry x="-0.8729" y="5" relative="1" as="geometry">
            <mxPoint x="1" as="offset" />
          </mxGeometry>
        </mxCell>
        <mxCell id="iy6-nLoN1OJl4ZV8e4Iy-30" value="&lt;div&gt;Нужна ли &lt;br&gt;&lt;/div&gt;&lt;div&gt;помощь в &lt;br&gt;&lt;/div&gt;&lt;div&gt;выполнении?&lt;br&gt;&lt;/div&gt;" style="strokeWidth=2;html=1;shape=mxgraph.flowchart.decision;whiteSpace=wrap;" parent="1" vertex="1">
          <mxGeometry x="720" y="1400" width="150" height="100" as="geometry" />
        </mxCell>
        <mxCell id="iy6-nLoN1OJl4ZV8e4Iy-32" style="edgeStyle=orthogonalEdgeStyle;rounded=0;orthogonalLoop=1;jettySize=auto;html=1;entryX=0.5;entryY=0;entryDx=0;entryDy=0;entryPerimeter=0;" parent="1" source="iy6-nLoN1OJl4ZV8e4Iy-25" target="iy6-nLoN1OJl4ZV8e4Iy-30" edge="1">
          <mxGeometry relative="1" as="geometry">
            <Array as="points">
              <mxPoint x="620" y="1160" />
              <mxPoint x="620" y="1390" />
            </Array>
          </mxGeometry>
        </mxCell>
        <mxCell id="iy6-nLoN1OJl4ZV8e4Iy-33" value="Нет" style="edgeLabel;html=1;align=center;verticalAlign=middle;resizable=0;points=[];" parent="iy6-nLoN1OJl4ZV8e4Iy-32" connectable="0" vertex="1">
          <mxGeometry x="-0.8759" relative="1" as="geometry">
            <mxPoint x="1" as="offset" />
          </mxGeometry>
        </mxCell>
        <mxCell id="iy6-nLoN1OJl4ZV8e4Iy-40" style="edgeStyle=orthogonalEdgeStyle;rounded=0;orthogonalLoop=1;jettySize=auto;html=1;entryX=0.5;entryY=0;entryDx=0;entryDy=0;" parent="1" source="iy6-nLoN1OJl4ZV8e4Iy-34" target="iy6-nLoN1OJl4ZV8e4Iy-38" edge="1">
          <mxGeometry relative="1" as="geometry">
            <Array as="points">
              <mxPoint x="965" y="1720" />
              <mxPoint x="795" y="1720" />
            </Array>
          </mxGeometry>
        </mxCell>
        <mxCell id="iy6-nLoN1OJl4ZV8e4Iy-34" value="Поиск специалиста" style="verticalLabelPosition=bottom;verticalAlign=top;html=1;shape=process;whiteSpace=wrap;rounded=1;size=0.14;arcSize=6;" parent="1" vertex="1">
          <mxGeometry x="890" y="1580" width="150" height="50" as="geometry" />
        </mxCell>
        <mxCell id="iy6-nLoN1OJl4ZV8e4Iy-38" value="Отчёт" style="verticalLabelPosition=bottom;verticalAlign=top;html=1;shape=process;whiteSpace=wrap;rounded=1;size=0.14;arcSize=6;" parent="1" vertex="1">
          <mxGeometry x="720" y="1770" width="150" height="50" as="geometry" />
        </mxCell>
        <mxCell id="iy6-nLoN1OJl4ZV8e4Iy-45" style="edgeStyle=orthogonalEdgeStyle;rounded=0;orthogonalLoop=1;jettySize=auto;html=1;entryX=0;entryY=0.5;entryDx=0;entryDy=0;" parent="1" source="iy6-nLoN1OJl4ZV8e4Iy-44" target="iy6-nLoN1OJl4ZV8e4Iy-38" edge="1">
          <mxGeometry relative="1" as="geometry" />
        </mxCell>
        <mxCell id="iy6-nLoN1OJl4ZV8e4Iy-44" value="&lt;div&gt;&lt;br&gt;&lt;/div&gt;&lt;div&gt;&lt;br&gt;&lt;/div&gt;&lt;div&gt;Затраченные ресурсы,&lt;/div&gt;&lt;div&gt;и т.д.&lt;br&gt;&lt;/div&gt;" style="html=1;strokeWidth=2;shape=manualInput;whiteSpace=wrap;rounded=1;size=26;arcSize=11;" parent="1" vertex="1">
          <mxGeometry x="460" y="1754" width="170" height="80" as="geometry" />
        </mxCell>
        <mxCell id="iy6-nLoN1OJl4ZV8e4Iy-46" value="Отчёт" style="strokeWidth=2;html=1;shape=mxgraph.flowchart.document2;whiteSpace=wrap;size=0.25;" parent="1" vertex="1">
          <mxGeometry x="990" y="1762" width="140" height="66" as="geometry" />
        </mxCell>
        <mxCell id="iy6-nLoN1OJl4ZV8e4Iy-47" style="edgeStyle=orthogonalEdgeStyle;rounded=0;orthogonalLoop=1;jettySize=auto;html=1;entryX=0;entryY=0.5;entryDx=0;entryDy=0;entryPerimeter=0;" parent="1" source="iy6-nLoN1OJl4ZV8e4Iy-38" target="iy6-nLoN1OJl4ZV8e4Iy-46" edge="1">
          <mxGeometry relative="1" as="geometry" />
        </mxCell>
        <mxCell id="iy6-nLoN1OJl4ZV8e4Iy-51" style="edgeStyle=orthogonalEdgeStyle;rounded=0;orthogonalLoop=1;jettySize=auto;html=1;entryX=0.5;entryY=0;entryDx=0;entryDy=0;" parent="1" source="iy6-nLoN1OJl4ZV8e4Iy-48" target="iy6-nLoN1OJl4ZV8e4Iy-50" edge="1">
          <mxGeometry relative="1" as="geometry" />
        </mxCell>
        <mxCell id="iy6-nLoN1OJl4ZV8e4Iy-48" value="&lt;div&gt;&lt;br&gt;&lt;/div&gt;&lt;div&gt;Изменение статуса&lt;/div&gt;&lt;div&gt;заявки&lt;br&gt;&lt;/div&gt;" style="strokeWidth=2;html=1;shape=mxgraph.flowchart.database;whiteSpace=wrap;" parent="1" vertex="1">
          <mxGeometry x="715" y="1910" width="160" height="70" as="geometry" />
        </mxCell>
        <mxCell id="iy6-nLoN1OJl4ZV8e4Iy-49" style="edgeStyle=orthogonalEdgeStyle;rounded=0;orthogonalLoop=1;jettySize=auto;html=1;entryX=0.5;entryY=0;entryDx=0;entryDy=0;entryPerimeter=0;" parent="1" source="iy6-nLoN1OJl4ZV8e4Iy-38" target="iy6-nLoN1OJl4ZV8e4Iy-48" edge="1">
          <mxGeometry relative="1" as="geometry" />
        </mxCell>
        <mxCell id="iy6-nLoN1OJl4ZV8e4Iy-57" style="edgeStyle=orthogonalEdgeStyle;rounded=0;orthogonalLoop=1;jettySize=auto;html=1;entryX=0.5;entryY=0;entryDx=0;entryDy=0;" parent="1" source="iy6-nLoN1OJl4ZV8e4Iy-50" target="iy6-nLoN1OJl4ZV8e4Iy-56" edge="1">
          <mxGeometry relative="1" as="geometry" />
        </mxCell>
        <mxCell id="iy6-nLoN1OJl4ZV8e4Iy-50" value="Мониторинг и анализ" style="verticalLabelPosition=bottom;verticalAlign=top;html=1;shape=process;whiteSpace=wrap;rounded=1;size=0.14;arcSize=6;" parent="1" vertex="1">
          <mxGeometry x="720" y="2080" width="150" height="50" as="geometry" />
        </mxCell>
        <mxCell id="iy6-nLoN1OJl4ZV8e4Iy-53" style="edgeStyle=orthogonalEdgeStyle;rounded=0;orthogonalLoop=1;jettySize=auto;html=1;entryX=0;entryY=0.5;entryDx=0;entryDy=0;" parent="1" source="iy6-nLoN1OJl4ZV8e4Iy-52" target="iy6-nLoN1OJl4ZV8e4Iy-50" edge="1">
          <mxGeometry relative="1" as="geometry" />
        </mxCell>
        <mxCell id="iy6-nLoN1OJl4ZV8e4Iy-52" value="&lt;div&gt;&lt;br&gt;&lt;/div&gt;&lt;div&gt;Получение&lt;/div&gt;&lt;div&gt;данных&lt;br&gt;&lt;/div&gt;" style="strokeWidth=2;html=1;shape=mxgraph.flowchart.database;whiteSpace=wrap;" parent="1" vertex="1">
          <mxGeometry x="450" y="2070" width="160" height="70" as="geometry" />
        </mxCell>
        <mxCell id="iy6-nLoN1OJl4ZV8e4Iy-54" value="Отчёт о заявках" style="strokeWidth=2;html=1;shape=mxgraph.flowchart.document2;whiteSpace=wrap;size=0.25;" parent="1" vertex="1">
          <mxGeometry x="990" y="2072" width="140" height="66" as="geometry" />
        </mxCell>
        <mxCell id="iy6-nLoN1OJl4ZV8e4Iy-55" style="edgeStyle=orthogonalEdgeStyle;rounded=0;orthogonalLoop=1;jettySize=auto;html=1;entryX=0;entryY=0.5;entryDx=0;entryDy=0;entryPerimeter=0;" parent="1" source="iy6-nLoN1OJl4ZV8e4Iy-50" target="iy6-nLoN1OJl4ZV8e4Iy-54" edge="1">
          <mxGeometry relative="1" as="geometry" />
        </mxCell>
        <mxCell id="iy6-nLoN1OJl4ZV8e4Iy-56" value="Оптимизация" style="verticalLabelPosition=bottom;verticalAlign=top;html=1;shape=process;whiteSpace=wrap;rounded=1;size=0.14;arcSize=6;" parent="1" vertex="1">
          <mxGeometry x="720" y="2200" width="150" height="50" as="geometry" />
        </mxCell>
        <mxCell id="iy6-nLoN1OJl4ZV8e4Iy-58" value="Конец" style="strokeWidth=2;html=1;shape=mxgraph.flowchart.terminator;whiteSpace=wrap;" parent="1" vertex="1">
          <mxGeometry x="720" y="2310" width="150" height="60" as="geometry" />
        </mxCell>
        <mxCell id="iy6-nLoN1OJl4ZV8e4Iy-59" style="edgeStyle=orthogonalEdgeStyle;rounded=0;orthogonalLoop=1;jettySize=auto;html=1;entryX=0.5;entryY=0;entryDx=0;entryDy=0;entryPerimeter=0;" parent="1" source="iy6-nLoN1OJl4ZV8e4Iy-56" target="iy6-nLoN1OJl4ZV8e4Iy-58" edge="1">
          <mxGeometry relative="1" as="geometry" />
        </mxCell>
        <mxCell id="iy6-nLoN1OJl4ZV8e4Iy-60" value="Блок-схема частная" style="text;html=1;align=center;verticalAlign=middle;resizable=0;points=[];autosize=1;strokeColor=none;fillColor=none;strokeWidth=1;fontSize=64;" parent="1" vertex="1">
          <mxGeometry x="1510" y="-280" width="620" height="90" as="geometry" />
        </mxCell>
        <mxCell id="iy6-nLoN1OJl4ZV8e4Iy-65" style="edgeStyle=orthogonalEdgeStyle;rounded=0;orthogonalLoop=1;jettySize=auto;html=1;" parent="1" source="iy6-nLoN1OJl4ZV8e4Iy-61" target="iy6-nLoN1OJl4ZV8e4Iy-62" edge="1">
          <mxGeometry relative="1" as="geometry" />
        </mxCell>
        <mxCell id="iy6-nLoN1OJl4ZV8e4Iy-61" value="Начало/FunCount" style="strokeWidth=2;html=1;shape=mxgraph.flowchart.terminator;whiteSpace=wrap;" parent="1" vertex="1">
          <mxGeometry x="1745" y="-180" width="150" height="60" as="geometry" />
        </mxCell>
        <mxCell id="iy6-nLoN1OJl4ZV8e4Iy-70" style="edgeStyle=orthogonalEdgeStyle;rounded=0;orthogonalLoop=1;jettySize=auto;html=1;entryX=0.5;entryY=0;entryDx=0;entryDy=0;" parent="1" source="iy6-nLoN1OJl4ZV8e4Iy-62" target="iy6-nLoN1OJl4ZV8e4Iy-68" edge="1">
          <mxGeometry relative="1" as="geometry" />
        </mxCell>
        <mxCell id="iy6-nLoN1OJl4ZV8e4Iy-62" value="Reqests" style="verticalLabelPosition=bottom;verticalAlign=top;html=1;shape=process;whiteSpace=wrap;rounded=1;size=0.14;arcSize=6;" parent="1" vertex="1">
          <mxGeometry x="1740" y="-70" width="160" height="60" as="geometry" />
        </mxCell>
        <mxCell id="iy6-nLoN1OJl4ZV8e4Iy-66" style="edgeStyle=orthogonalEdgeStyle;rounded=0;orthogonalLoop=1;jettySize=auto;html=1;entryX=0;entryY=0.5;entryDx=0;entryDy=0;" parent="1" source="iy6-nLoN1OJl4ZV8e4Iy-64" target="iy6-nLoN1OJl4ZV8e4Iy-62" edge="1">
          <mxGeometry relative="1" as="geometry" />
        </mxCell>
        <mxCell id="iy6-nLoN1OJl4ZV8e4Iy-67" value="Читать" style="edgeLabel;html=1;align=center;verticalAlign=middle;resizable=0;points=[];" parent="iy6-nLoN1OJl4ZV8e4Iy-66" connectable="0" vertex="1">
          <mxGeometry x="0.2308" relative="1" as="geometry">
            <mxPoint as="offset" />
          </mxGeometry>
        </mxCell>
        <mxCell id="iy6-nLoN1OJl4ZV8e4Iy-64" value="&lt;div&gt;&lt;br&gt;&lt;/div&gt;&lt;div&gt;БД с заявками&lt;/div&gt;" style="strokeWidth=2;html=1;shape=mxgraph.flowchart.database;whiteSpace=wrap;" parent="1" vertex="1">
          <mxGeometry x="1450" y="-75.00000000000001" width="160" height="70" as="geometry" />
        </mxCell>
        <mxCell id="iy6-nLoN1OJl4ZV8e4Iy-72" style="edgeStyle=orthogonalEdgeStyle;rounded=0;orthogonalLoop=1;jettySize=auto;html=1;" parent="1" source="iy6-nLoN1OJl4ZV8e4Iy-68" target="iy6-nLoN1OJl4ZV8e4Iy-71" edge="1">
          <mxGeometry relative="1" as="geometry" />
        </mxCell>
        <mxCell id="iy6-nLoN1OJl4ZV8e4Iy-68" value="N:= Requests.Count" style="rounded=0;whiteSpace=wrap;html=1;" parent="1" vertex="1">
          <mxGeometry x="1740" y="45" width="160" height="60" as="geometry" />
        </mxCell>
        <mxCell id="iy6-nLoN1OJl4ZV8e4Iy-71" value="Count:= 0" style="rounded=0;whiteSpace=wrap;html=1;" parent="1" vertex="1">
          <mxGeometry x="1740" y="150" width="160" height="60" as="geometry" />
        </mxCell>
        <mxCell id="iy6-nLoN1OJl4ZV8e4Iy-75" style="edgeStyle=orthogonalEdgeStyle;rounded=0;orthogonalLoop=1;jettySize=auto;html=1;entryX=0.5;entryY=0;entryDx=0;entryDy=0;" parent="1" source="iy6-nLoN1OJl4ZV8e4Iy-73" target="iy6-nLoN1OJl4ZV8e4Iy-76" edge="1">
          <mxGeometry relative="1" as="geometry">
            <mxPoint x="1825" y="360" as="targetPoint" />
          </mxGeometry>
        </mxCell>
        <mxCell id="iy6-nLoN1OJl4ZV8e4Iy-86" style="edgeStyle=orthogonalEdgeStyle;rounded=0;orthogonalLoop=1;jettySize=auto;html=1;entryX=0.5;entryY=0;entryDx=0;entryDy=0;entryPerimeter=0;" parent="1" source="iy6-nLoN1OJl4ZV8e4Iy-73" target="iy6-nLoN1OJl4ZV8e4Iy-87" edge="1">
          <mxGeometry relative="1" as="geometry">
            <mxPoint x="2110" y="950" as="targetPoint" />
            <Array as="points">
              <mxPoint x="2111" y="280" />
              <mxPoint x="2111" y="860" />
              <mxPoint x="1820" y="860" />
            </Array>
          </mxGeometry>
        </mxCell>
        <mxCell id="iy6-nLoN1OJl4ZV8e4Iy-73" value="i := 1, N, 1" style="verticalLabelPosition=bottom;verticalAlign=top;html=1;shape=hexagon;perimeter=hexagonPerimeter2;arcSize=6;size=0.27;" parent="1" vertex="1">
          <mxGeometry x="1740" y="250" width="170" height="60" as="geometry" />
        </mxCell>
        <mxCell id="iy6-nLoN1OJl4ZV8e4Iy-74" style="edgeStyle=orthogonalEdgeStyle;rounded=0;orthogonalLoop=1;jettySize=auto;html=1;entryX=0.475;entryY=-0.028;entryDx=0;entryDy=0;entryPerimeter=0;" parent="1" source="iy6-nLoN1OJl4ZV8e4Iy-71" target="iy6-nLoN1OJl4ZV8e4Iy-73" edge="1">
          <mxGeometry relative="1" as="geometry" />
        </mxCell>
        <mxCell id="iy6-nLoN1OJl4ZV8e4Iy-76" value="Request: = Requests[i]" style="rounded=0;whiteSpace=wrap;html=1;" parent="1" vertex="1">
          <mxGeometry x="1745" y="360" width="160" height="60" as="geometry" />
        </mxCell>
        <mxCell id="iy6-nLoN1OJl4ZV8e4Iy-80" style="edgeStyle=orthogonalEdgeStyle;rounded=0;orthogonalLoop=1;jettySize=auto;html=1;entryX=0.5;entryY=0;entryDx=0;entryDy=0;" parent="1" source="iy6-nLoN1OJl4ZV8e4Iy-77" target="iy6-nLoN1OJl4ZV8e4Iy-79" edge="1">
          <mxGeometry relative="1" as="geometry" />
        </mxCell>
        <mxCell id="iy6-nLoN1OJl4ZV8e4Iy-81" value="Да" style="edgeLabel;html=1;align=center;verticalAlign=middle;resizable=0;points=[];" parent="iy6-nLoN1OJl4ZV8e4Iy-80" connectable="0" vertex="1">
          <mxGeometry x="-0.5952" y="-1" relative="1" as="geometry">
            <mxPoint x="1" as="offset" />
          </mxGeometry>
        </mxCell>
        <mxCell id="iy6-nLoN1OJl4ZV8e4Iy-83" style="edgeStyle=orthogonalEdgeStyle;rounded=0;orthogonalLoop=1;jettySize=auto;html=1;" parent="1" source="iy6-nLoN1OJl4ZV8e4Iy-77" edge="1">
          <mxGeometry relative="1" as="geometry">
            <mxPoint x="1820" y="750" as="targetPoint" />
            <Array as="points">
              <mxPoint x="1670" y="520" />
              <mxPoint x="1670" y="740" />
              <mxPoint x="1820" y="740" />
            </Array>
          </mxGeometry>
        </mxCell>
        <mxCell id="iy6-nLoN1OJl4ZV8e4Iy-85" value="Нет" style="edgeLabel;html=1;align=center;verticalAlign=middle;resizable=0;points=[];" parent="iy6-nLoN1OJl4ZV8e4Iy-83" connectable="0" vertex="1">
          <mxGeometry x="-0.871" y="-3" relative="1" as="geometry">
            <mxPoint as="offset" />
          </mxGeometry>
        </mxCell>
        <mxCell id="iy6-nLoN1OJl4ZV8e4Iy-77" value="&lt;div&gt;Request.Status = &lt;br&gt;&lt;/div&gt;&lt;div&gt;&#39;выполнено&#39;&lt;br&gt;&lt;/div&gt;" style="strokeWidth=2;html=1;shape=mxgraph.flowchart.decision;whiteSpace=wrap;" parent="1" vertex="1">
          <mxGeometry x="1747.5" y="470" width="155" height="100" as="geometry" />
        </mxCell>
        <mxCell id="iy6-nLoN1OJl4ZV8e4Iy-78" style="edgeStyle=orthogonalEdgeStyle;rounded=0;orthogonalLoop=1;jettySize=auto;html=1;entryX=0.5;entryY=0;entryDx=0;entryDy=0;entryPerimeter=0;" parent="1" source="iy6-nLoN1OJl4ZV8e4Iy-76" target="iy6-nLoN1OJl4ZV8e4Iy-77" edge="1">
          <mxGeometry relative="1" as="geometry" />
        </mxCell>
        <mxCell id="iy6-nLoN1OJl4ZV8e4Iy-82" style="edgeStyle=orthogonalEdgeStyle;rounded=0;orthogonalLoop=1;jettySize=auto;html=1;entryX=0;entryY=0.5;entryDx=0;entryDy=0;" parent="1" source="iy6-nLoN1OJl4ZV8e4Iy-79" target="iy6-nLoN1OJl4ZV8e4Iy-73" edge="1">
          <mxGeometry relative="1" as="geometry">
            <Array as="points">
              <mxPoint x="1985" y="750" />
              <mxPoint x="1600" y="750" />
              <mxPoint x="1600" y="280" />
            </Array>
          </mxGeometry>
        </mxCell>
        <mxCell id="iy6-nLoN1OJl4ZV8e4Iy-79" value="Count := Count + 1" style="rounded=0;whiteSpace=wrap;html=1;" parent="1" vertex="1">
          <mxGeometry x="1905" y="603" width="160" height="60" as="geometry" />
        </mxCell>
        <mxCell id="iy6-nLoN1OJl4ZV8e4Iy-87" value="&lt;div&gt;Конец/Count&lt;br&gt;&lt;/div&gt;" style="strokeWidth=2;html=1;shape=mxgraph.flowchart.terminator;whiteSpace=wrap;" parent="1" vertex="1">
          <mxGeometry x="1745" y="930" width="150" height="60" as="geometry" />
        </mxCell>
        <mxCell id="Mu_nsijks2X5L4Cg1cfL-13" value="" style="strokeWidth=2;html=1;shape=mxgraph.flowchart.database;whiteSpace=wrap;" parent="1" vertex="1">
          <mxGeometry x="1030" y="-140" width="60" height="60" as="geometry" />
        </mxCell>
        <mxCell id="Mu_nsijks2X5L4Cg1cfL-14" value="" style="verticalLabelPosition=bottom;verticalAlign=top;html=1;shape=process;whiteSpace=wrap;rounded=1;size=0.14;arcSize=6;" parent="1" vertex="1">
          <mxGeometry x="1110" y="-140" width="100" height="60" as="geometry" />
        </mxCell>
        <mxCell id="Mu_nsijks2X5L4Cg1cfL-15" value="" style="html=1;strokeWidth=2;shape=manualInput;whiteSpace=wrap;rounded=1;size=26;arcSize=11;" parent="1" vertex="1">
          <mxGeometry x="1230" y="-154" width="100" height="60" as="geometry" />
        </mxCell>
        <mxCell id="Mu_nsijks2X5L4Cg1cfL-16" value="" style="strokeWidth=2;html=1;shape=mxgraph.flowchart.document2;whiteSpace=wrap;size=0.25;" parent="1" vertex="1">
          <mxGeometry x="1030" y="15" width="100" height="60" as="geometry" />
        </mxCell>
        <mxCell id="Mu_nsijks2X5L4Cg1cfL-23" style="edgeStyle=orthogonalEdgeStyle;rounded=0;orthogonalLoop=1;jettySize=auto;html=1;" parent="1" source="Mu_nsijks2X5L4Cg1cfL-17" edge="1">
          <mxGeometry relative="1" as="geometry">
            <mxPoint x="1180" y="120" as="targetPoint" />
          </mxGeometry>
        </mxCell>
        <mxCell id="Mu_nsijks2X5L4Cg1cfL-25" value="Нет" style="edgeLabel;html=1;align=center;verticalAlign=middle;resizable=0;points=[];" parent="Mu_nsijks2X5L4Cg1cfL-23" connectable="0" vertex="1">
          <mxGeometry x="-0.5796" y="2" relative="1" as="geometry">
            <mxPoint as="offset" />
          </mxGeometry>
        </mxCell>
        <mxCell id="Mu_nsijks2X5L4Cg1cfL-24" style="edgeStyle=orthogonalEdgeStyle;rounded=0;orthogonalLoop=1;jettySize=auto;html=1;" parent="1" source="Mu_nsijks2X5L4Cg1cfL-17" edge="1">
          <mxGeometry relative="1" as="geometry">
            <mxPoint x="1450" y="130" as="targetPoint" />
          </mxGeometry>
        </mxCell>
        <mxCell id="Mu_nsijks2X5L4Cg1cfL-26" value="Да" style="edgeLabel;html=1;align=center;verticalAlign=middle;resizable=0;points=[];" parent="Mu_nsijks2X5L4Cg1cfL-24" connectable="0" vertex="1">
          <mxGeometry x="-0.6524" y="-2" relative="1" as="geometry">
            <mxPoint as="offset" />
          </mxGeometry>
        </mxCell>
        <mxCell id="Mu_nsijks2X5L4Cg1cfL-17" value="" style="strokeWidth=2;html=1;shape=mxgraph.flowchart.decision;whiteSpace=wrap;" parent="1" vertex="1">
          <mxGeometry x="1260" y="-20" width="100" height="100" as="geometry" />
        </mxCell>
        <mxCell id="Mu_nsijks2X5L4Cg1cfL-18" value="БД" style="text;html=1;align=center;verticalAlign=middle;resizable=0;points=[];autosize=1;strokeColor=none;fillColor=none;" parent="1" vertex="1">
          <mxGeometry x="1040" y="-82" width="40" height="30" as="geometry" />
        </mxCell>
        <mxCell id="Mu_nsijks2X5L4Cg1cfL-19" value="&lt;div&gt;Отдельный &lt;br&gt;&lt;/div&gt;&lt;div&gt;процесс&lt;br&gt;&lt;/div&gt;" style="text;html=1;align=center;verticalAlign=middle;resizable=0;points=[];autosize=1;strokeColor=none;fillColor=none;" parent="1" vertex="1">
          <mxGeometry x="1115" y="-74.99" width="90" height="40" as="geometry" />
        </mxCell>
        <mxCell id="Mu_nsijks2X5L4Cg1cfL-20" value="&lt;div&gt;Введённые данные&lt;/div&gt;&lt;div&gt;с клавиатуры&lt;br&gt;&lt;/div&gt;" style="text;html=1;align=center;verticalAlign=middle;resizable=0;points=[];autosize=1;strokeColor=none;fillColor=none;" parent="1" vertex="1">
          <mxGeometry x="1220" y="-87" width="140" height="40" as="geometry" />
        </mxCell>
        <mxCell id="Mu_nsijks2X5L4Cg1cfL-21" value="Документ" style="text;html=1;align=center;verticalAlign=middle;resizable=0;points=[];autosize=1;strokeColor=none;fillColor=none;" parent="1" vertex="1">
          <mxGeometry x="1035" y="75" width="80" height="30" as="geometry" />
        </mxCell>
        <mxCell id="Mu_nsijks2X5L4Cg1cfL-22" value="Условие" style="text;html=1;align=center;verticalAlign=middle;resizable=0;points=[];autosize=1;strokeColor=none;fillColor=none;" parent="1" vertex="1">
          <mxGeometry x="1275" y="88" width="70" height="30" as="geometry" />
        </mxCell>
        <mxCell id="Mu_nsijks2X5L4Cg1cfL-27" value="" style="rounded=0;whiteSpace=wrap;html=1;" parent="1" vertex="1">
          <mxGeometry x="2230" y="15" width="120" height="60" as="geometry" />
        </mxCell>
        <mxCell id="Mu_nsijks2X5L4Cg1cfL-28" value="Переменная" style="text;html=1;align=center;verticalAlign=middle;resizable=0;points=[];autosize=1;strokeColor=none;fillColor=none;" parent="1" vertex="1">
          <mxGeometry x="2240" y="75" width="100" height="30" as="geometry" />
        </mxCell>
        <mxCell id="Mu_nsijks2X5L4Cg1cfL-29" value="" style="shape=parallelogram;html=1;strokeWidth=2;perimeter=parallelogramPerimeter;whiteSpace=wrap;rounded=1;arcSize=12;size=0.23;" parent="1" vertex="1">
          <mxGeometry x="2200" y="117.5" width="160" height="60" as="geometry" />
        </mxCell>
        <mxCell id="Mu_nsijks2X5L4Cg1cfL-30" value="Ввод данных с клавиатуры" style="text;html=1;align=center;verticalAlign=middle;resizable=0;points=[];autosize=1;strokeColor=none;fillColor=none;" parent="1" vertex="1">
          <mxGeometry x="2180" y="177.5" width="170" height="30" as="geometry" />
        </mxCell>
        <mxCell id="Mu_nsijks2X5L4Cg1cfL-32" value="Цикл" style="text;html=1;align=center;verticalAlign=middle;resizable=0;points=[];autosize=1;strokeColor=none;fillColor=none;" parent="1" vertex="1">
          <mxGeometry x="2240" y="300" width="50" height="30" as="geometry" />
        </mxCell>
        <mxCell id="Mu_nsijks2X5L4Cg1cfL-33" value="i := 1, N, 1" style="shape=hexagon;perimeter=hexagonPerimeter2;whiteSpace=wrap;html=1;fixedSize=1;" parent="1" vertex="1">
          <mxGeometry x="2170" y="210" width="190" height="80" as="geometry" />
        </mxCell>
        <mxCell id="RmPNDtQAe_ROEGnAbES_-1" value="&lt;p class=&quot;MsoNormal&quot; style=&quot;margin-bottom:0cm;line-height:normal;mso-layout-grid-align:&lt;br/&gt;none;text-autospace:none&quot;&gt;&lt;span lang=&quot;EN-US&quot; style=&quot;font-size:9.5pt;font-family:&lt;br/&gt;&amp;quot;Cascadia Mono&amp;quot;;mso-bidi-font-family:&amp;quot;Cascadia Mono&amp;quot;;color:black;mso-ansi-language:&lt;br/&gt;EN-US&quot;&gt;&lt;span style=&quot;mso-tab-count:1&quot;&gt;&amp;nbsp;&amp;nbsp;&amp;nbsp;&amp;nbsp;&amp;nbsp;&amp;nbsp; &lt;/span&gt;&lt;/span&gt;&lt;span lang=&quot;EN-US&quot; style=&quot;font-size:9.5pt;font-family:&amp;quot;Cascadia Mono&amp;quot;;mso-bidi-font-family:&amp;quot;Cascadia Mono&amp;quot;;&lt;br/&gt;color:blue;mso-ansi-language:EN-US&quot;&gt;private&lt;/span&gt;&lt;span lang=&quot;EN-US&quot; style=&quot;font-size:9.5pt;font-family:&amp;quot;Cascadia Mono&amp;quot;;mso-bidi-font-family:&amp;quot;Cascadia Mono&amp;quot;;&lt;br/&gt;color:black;mso-ansi-language:EN-US&quot;&gt; &lt;/span&gt;&lt;span lang=&quot;EN-US&quot; style=&quot;font-size:&lt;br/&gt;9.5pt;font-family:&amp;quot;Cascadia Mono&amp;quot;;mso-bidi-font-family:&amp;quot;Cascadia Mono&amp;quot;;&lt;br/&gt;color:blue;mso-ansi-language:EN-US&quot;&gt;void&lt;/span&gt;&lt;span lang=&quot;EN-US&quot; style=&quot;font-size:9.5pt;font-family:&amp;quot;Cascadia Mono&amp;quot;;mso-bidi-font-family:&amp;quot;Cascadia Mono&amp;quot;;&lt;br/&gt;color:black;mso-ansi-language:EN-US&quot;&gt; btnLogin_Click(&lt;/span&gt;&lt;span lang=&quot;EN-US&quot; style=&quot;font-size:9.5pt;font-family:&amp;quot;Cascadia Mono&amp;quot;;mso-bidi-font-family:&amp;quot;Cascadia Mono&amp;quot;;&lt;br/&gt;color:blue;mso-ansi-language:EN-US&quot;&gt;object&lt;/span&gt;&lt;span lang=&quot;EN-US&quot; style=&quot;font-size:9.5pt;font-family:&amp;quot;Cascadia Mono&amp;quot;;mso-bidi-font-family:&amp;quot;Cascadia Mono&amp;quot;;&lt;br/&gt;color:black;mso-ansi-language:EN-US&quot;&gt; sender, RoutedEventArgs e)&lt;/span&gt;&lt;/p&gt;&lt;p class=&quot;MsoNormal&quot; style=&quot;margin-bottom:0cm;line-height:normal;mso-layout-grid-align:&lt;br/&gt;none;text-autospace:none&quot;&gt;&lt;span lang=&quot;EN-US&quot; style=&quot;font-size:9.5pt;font-family:&lt;br/&gt;&amp;quot;Cascadia Mono&amp;quot;;mso-bidi-font-family:&amp;quot;Cascadia Mono&amp;quot;;color:black;mso-ansi-language:&lt;br/&gt;EN-US&quot;&gt;&lt;span style=&quot;mso-spacerun:yes&quot;&gt;&amp;nbsp; &amp;nbsp; &amp;nbsp; &amp;nbsp;&amp;nbsp;&lt;/span&gt;&lt;/span&gt;&lt;span lang=&quot;EN-US&quot; style=&quot;font-size:9.5pt;font-family:&amp;quot;Cascadia Mono&amp;quot;;mso-bidi-font-family:&amp;quot;Cascadia Mono&amp;quot;;&lt;br/&gt;color:blue;mso-ansi-language:EN-US&quot;&gt;string&lt;/span&gt;&lt;span lang=&quot;EN-US&quot; style=&quot;font-size:9.5pt;font-family:&amp;quot;Cascadia Mono&amp;quot;;mso-bidi-font-family:&amp;quot;Cascadia Mono&amp;quot;;&lt;br/&gt;color:black;mso-ansi-language:EN-US&quot;&gt; login = tbLogin.Text;&lt;/span&gt;&lt;/p&gt;&lt;p class=&quot;MsoNormal&quot; style=&quot;margin-bottom:0cm;line-height:normal;mso-layout-grid-align:&lt;br/&gt;none;text-autospace:none&quot;&gt;&lt;span lang=&quot;EN-US&quot; style=&quot;font-size:9.5pt;font-family:&lt;br/&gt;&amp;quot;Cascadia Mono&amp;quot;;mso-bidi-font-family:&amp;quot;Cascadia Mono&amp;quot;;color:black;mso-ansi-language:&lt;br/&gt;EN-US&quot;&gt;&lt;span style=&quot;mso-spacerun:yes&quot;&gt;&amp;nbsp; &amp;nbsp; &amp;nbsp; &amp;nbsp;&amp;nbsp;&lt;/span&gt;&lt;/span&gt;&lt;span lang=&quot;EN-US&quot; style=&quot;font-size:9.5pt;font-family:&amp;quot;Cascadia Mono&amp;quot;;mso-bidi-font-family:&amp;quot;Cascadia Mono&amp;quot;;&lt;br/&gt;color:blue;mso-ansi-language:EN-US&quot;&gt;string&lt;/span&gt;&lt;span lang=&quot;EN-US&quot; style=&quot;font-size:9.5pt;font-family:&amp;quot;Cascadia Mono&amp;quot;;mso-bidi-font-family:&amp;quot;Cascadia Mono&amp;quot;;&lt;br/&gt;color:black;mso-ansi-language:EN-US&quot;&gt; password = pbPassword.Password;&lt;/span&gt;&lt;/p&gt;&lt;p class=&quot;MsoNormal&quot; style=&quot;margin-bottom:0cm;line-height:normal;mso-layout-grid-align:&lt;br/&gt;none;text-autospace:none&quot;&gt;&lt;span lang=&quot;EN-US&quot; style=&quot;font-size:9.5pt;font-family:&lt;br/&gt;&amp;quot;Cascadia Mono&amp;quot;;mso-bidi-font-family:&amp;quot;Cascadia Mono&amp;quot;;color:black;mso-ansi-language:&lt;br/&gt;EN-US&quot;&gt;&lt;span style=&quot;mso-spacerun:yes&quot;&gt;&amp;nbsp;&amp;nbsp;&amp;nbsp;&amp;nbsp;&amp;nbsp;&amp;nbsp;&amp;nbsp; &lt;/span&gt;Helper.User =&lt;br&gt;Helper.DB.User.ToList().Where(u =&amp;gt; u.UserName == login &amp;amp;&amp;amp;&lt;br&gt;u.UserPassword == password).FirstOrDefault();&lt;/span&gt;&lt;/p&gt;&lt;p class=&quot;MsoNormal&quot; style=&quot;margin-bottom:0cm;line-height:normal;mso-layout-grid-align:&lt;br/&gt;none;text-autospace:none&quot;&gt;&lt;span lang=&quot;EN-US&quot; style=&quot;font-size:9.5pt;font-family:&lt;br/&gt;&amp;quot;Cascadia Mono&amp;quot;;mso-bidi-font-family:&amp;quot;Cascadia Mono&amp;quot;;color:black;mso-ansi-language:&lt;br/&gt;EN-US&quot;&gt;&lt;span style=&quot;mso-spacerun:yes&quot;&gt;&amp;nbsp;&amp;nbsp;&amp;nbsp;&amp;nbsp;&amp;nbsp;&amp;nbsp;&amp;nbsp; &lt;/span&gt;&lt;/span&gt;&lt;span lang=&quot;EN-US&quot; style=&quot;font-size:9.5pt;font-family:&amp;quot;Cascadia Mono&amp;quot;;mso-bidi-font-family:&amp;quot;Cascadia Mono&amp;quot;;&lt;br/&gt;color:blue;mso-ansi-language:EN-US&quot;&gt;if&lt;/span&gt;&lt;span lang=&quot;EN-US&quot; style=&quot;font-size:&lt;br/&gt;9.5pt;font-family:&amp;quot;Cascadia Mono&amp;quot;;mso-bidi-font-family:&amp;quot;Cascadia Mono&amp;quot;;&lt;br/&gt;color:black;mso-ansi-language:EN-US&quot;&gt; (Helper.User != &lt;/span&gt;&lt;span lang=&quot;EN-US&quot; style=&quot;font-size:9.5pt;font-family:&amp;quot;Cascadia Mono&amp;quot;;mso-bidi-font-family:&amp;quot;Cascadia Mono&amp;quot;;&lt;br/&gt;color:blue;mso-ansi-language:EN-US&quot;&gt;null&lt;/span&gt;&lt;span lang=&quot;EN-US&quot; style=&quot;font-size:9.5pt;font-family:&amp;quot;Cascadia Mono&amp;quot;;mso-bidi-font-family:&amp;quot;Cascadia Mono&amp;quot;;&lt;br/&gt;color:black;mso-ansi-language:EN-US&quot;&gt;)&amp;nbsp;&lt;/span&gt;&lt;/p&gt;&lt;p class=&quot;MsoNormal&quot; style=&quot;margin-bottom:0cm;line-height:normal;mso-layout-grid-align:&lt;br/&gt;none;text-autospace:none&quot;&gt;&lt;span lang=&quot;EN-US&quot; style=&quot;font-size:9.5pt;font-family:&lt;br/&gt;&amp;quot;Cascadia Mono&amp;quot;;mso-bidi-font-family:&amp;quot;Cascadia Mono&amp;quot;;color:black;mso-ansi-language:&lt;br/&gt;EN-US&quot;&gt;&lt;span style=&quot;mso-spacerun:yes&quot;&gt;&amp;nbsp;&amp;nbsp;&amp;nbsp;&amp;nbsp;&amp;nbsp;&amp;nbsp;&amp;nbsp;&amp;nbsp;&amp;nbsp;&amp;nbsp;&amp;nbsp; &lt;/span&gt;&lt;/span&gt;&lt;span lang=&quot;EN-US&quot; style=&quot;font-size:9.5pt;font-family:&amp;quot;Cascadia Mono&amp;quot;;mso-bidi-font-family:&lt;br/&gt;&amp;quot;Cascadia Mono&amp;quot;;color:blue;mso-ansi-language:EN-US&quot;&gt;string&lt;/span&gt;&lt;span lang=&quot;EN-US&quot; style=&quot;font-size:9.5pt;font-family:&amp;quot;Cascadia Mono&amp;quot;;mso-bidi-font-family:&lt;br/&gt;&amp;quot;Cascadia Mono&amp;quot;;color:black;mso-ansi-language:EN-US&quot;&gt; UserName =&lt;br&gt;Helper.User.UserName;&lt;/span&gt;&lt;/p&gt;&lt;p class=&quot;MsoNormal&quot; style=&quot;margin-bottom:0cm;line-height:normal;mso-layout-grid-align:&lt;br/&gt;none;text-autospace:none&quot;&gt;&lt;span lang=&quot;EN-US&quot; style=&quot;font-size:9.5pt;font-family:&lt;br/&gt;&amp;quot;Cascadia Mono&amp;quot;;mso-bidi-font-family:&amp;quot;Cascadia Mono&amp;quot;;color:black;mso-ansi-language:&lt;br/&gt;EN-US&quot;&gt;&lt;span style=&quot;mso-spacerun:yes&quot;&gt;&amp;nbsp;&amp;nbsp;&amp;nbsp;&amp;nbsp;&amp;nbsp;&amp;nbsp;&amp;nbsp;&amp;nbsp;&amp;nbsp;&amp;nbsp;&amp;nbsp; &lt;/span&gt;&lt;/span&gt;&lt;span lang=&quot;EN-US&quot; style=&quot;font-size:9.5pt;font-family:&amp;quot;Cascadia Mono&amp;quot;;mso-bidi-font-family:&lt;br/&gt;&amp;quot;Cascadia Mono&amp;quot;;color:blue;mso-ansi-language:EN-US&quot;&gt;int&lt;/span&gt;&lt;span lang=&quot;EN-US&quot; style=&quot;font-size:9.5pt;font-family:&amp;quot;Cascadia Mono&amp;quot;;mso-bidi-font-family:&amp;quot;Cascadia Mono&amp;quot;;&lt;br/&gt;color:black;mso-ansi-language:EN-US&quot;&gt; UserRole = Helper.User.UserRole;&lt;/span&gt;&lt;/p&gt;&lt;p class=&quot;MsoNormal&quot; style=&quot;margin-bottom:0cm;line-height:normal;mso-layout-grid-align:&lt;br/&gt;none;text-autospace:none&quot;&gt;&lt;span lang=&quot;EN-US&quot; style=&quot;font-size:9.5pt;font-family:&lt;br/&gt;&amp;quot;Cascadia Mono&amp;quot;;mso-bidi-font-family:&amp;quot;Cascadia Mono&amp;quot;;color:black;mso-ansi-language:&lt;br/&gt;EN-US&quot;&gt;&lt;span style=&quot;mso-spacerun:yes&quot;&gt;&amp;nbsp;&amp;nbsp;&amp;nbsp;&amp;nbsp;&amp;nbsp;&amp;nbsp;&amp;nbsp;&amp;nbsp;&amp;nbsp;&amp;nbsp;&amp;nbsp; &lt;/span&gt;&lt;/span&gt;&lt;span lang=&quot;EN-US&quot; style=&quot;font-size:9.5pt;font-family:&amp;quot;Cascadia Mono&amp;quot;;mso-bidi-font-family:&lt;br/&gt;&amp;quot;Cascadia Mono&amp;quot;;color:blue;mso-ansi-language:EN-US&quot;&gt;string&lt;/span&gt;&lt;span lang=&quot;EN-US&quot; style=&quot;font-size:9.5pt;font-family:&amp;quot;Cascadia Mono&amp;quot;;mso-bidi-font-family:&lt;br/&gt;&amp;quot;Cascadia Mono&amp;quot;;color:black;mso-ansi-language:EN-US&quot;&gt; UserRoleName =&lt;br&gt;Helper.User.Role.RoleName;&lt;/span&gt;&lt;/p&gt;&lt;p class=&quot;MsoNormal&quot; style=&quot;margin-bottom:0cm;line-height:normal;mso-layout-grid-align:&lt;br/&gt;none;text-autospace:none&quot;&gt;&lt;span lang=&quot;EN-US&quot; style=&quot;font-size:9.5pt;font-family:&lt;br/&gt;&amp;quot;Cascadia Mono&amp;quot;;mso-bidi-font-family:&amp;quot;Cascadia Mono&amp;quot;;color:black;mso-ansi-language:&lt;br/&gt;EN-US&quot;&gt;&lt;span style=&quot;mso-spacerun:yes&quot;&gt;&amp;nbsp;&amp;nbsp;&amp;nbsp;&amp;nbsp;&amp;nbsp;&amp;nbsp;&amp;nbsp;&amp;nbsp;&amp;nbsp;&amp;nbsp;&amp;nbsp; &lt;/span&gt;MessageBox.Show(&lt;/span&gt;&lt;span lang=&quot;EN-US&quot; style=&quot;font-size:9.5pt;font-family:&amp;quot;Cascadia Mono&amp;quot;;mso-bidi-font-family:&lt;br/&gt;&amp;quot;Cascadia Mono&amp;quot;;color:#A31515;mso-ansi-language:EN-US&quot;&gt;&quot;&lt;/span&gt;&lt;span style=&quot;font-size:9.5pt;font-family:&amp;quot;Cascadia Mono&amp;quot;;mso-bidi-font-family:&amp;quot;Cascadia Mono&amp;quot;;&lt;br/&gt;color:#A31515&quot;&gt;Привет&lt;/span&gt;&lt;span lang=&quot;EN-US&quot; style=&quot;font-size:9.5pt;font-family:&lt;br/&gt;&amp;quot;Cascadia Mono&amp;quot;;mso-bidi-font-family:&amp;quot;Cascadia Mono&amp;quot;;color:#A31515;mso-ansi-language:&lt;br/&gt;EN-US&quot;&gt;, &quot;&lt;/span&gt;&lt;span lang=&quot;EN-US&quot; style=&quot;font-size:9.5pt;font-family:&amp;quot;Cascadia Mono&amp;quot;;&lt;br/&gt;mso-bidi-font-family:&amp;quot;Cascadia Mono&amp;quot;;color:black;mso-ansi-language:EN-US&quot;&gt; +&lt;br&gt;UserName + &lt;/span&gt;&lt;span lang=&quot;EN-US&quot; style=&quot;font-size:9.5pt;font-family:&amp;quot;Cascadia Mono&amp;quot;;&lt;br/&gt;mso-bidi-font-family:&amp;quot;Cascadia Mono&amp;quot;;color:#A31515;mso-ansi-language:EN-US&quot;&gt;&quot;!&quot;&lt;/span&gt;&lt;span lang=&quot;EN-US&quot; style=&quot;font-size:9.5pt;font-family:&amp;quot;Cascadia Mono&amp;quot;;mso-bidi-font-family:&lt;br/&gt;&amp;quot;Cascadia Mono&amp;quot;;color:black;mso-ansi-language:EN-US&quot;&gt;+ &lt;/span&gt;&lt;span lang=&quot;EN-US&quot; style=&quot;font-size:9.5pt;font-family:&amp;quot;Cascadia Mono&amp;quot;;mso-bidi-font-family:&amp;quot;Cascadia Mono&amp;quot;;&lt;br/&gt;color:#A31515;mso-ansi-language:EN-US&quot;&gt;&quot;/n&quot;&lt;/span&gt;&lt;span lang=&quot;EN-US&quot; style=&quot;font-size:9.5pt;font-family:&amp;quot;Cascadia Mono&amp;quot;;mso-bidi-font-family:&amp;quot;Cascadia Mono&amp;quot;;&lt;br/&gt;color:black;mso-ansi-language:EN-US&quot;&gt; + &lt;/span&gt;&lt;span lang=&quot;EN-US&quot; style=&quot;font-size:9.5pt;font-family:&amp;quot;Cascadia Mono&amp;quot;;mso-bidi-font-family:&amp;quot;Cascadia Mono&amp;quot;;&lt;br/&gt;color:#A31515;mso-ansi-language:EN-US&quot;&gt;&quot; &lt;/span&gt;&lt;span style=&quot;font-size:&lt;br/&gt;9.5pt;font-family:&amp;quot;Cascadia Mono&amp;quot;;mso-bidi-font-family:&amp;quot;Cascadia Mono&amp;quot;;&lt;br/&gt;color:#A31515&quot;&gt;Твоя&lt;/span&gt;&lt;span style=&quot;font-size:9.5pt;font-family:&amp;quot;Cascadia Mono&amp;quot;;&lt;br/&gt;mso-bidi-font-family:&amp;quot;Cascadia Mono&amp;quot;;color:#A31515;mso-ansi-language:EN-US&quot;&gt; &lt;/span&gt;&lt;span style=&quot;font-size:9.5pt;font-family:&amp;quot;Cascadia Mono&amp;quot;;mso-bidi-font-family:&amp;quot;Cascadia Mono&amp;quot;;&lt;br/&gt;color:#A31515&quot;&gt;роль&lt;/span&gt;&lt;span lang=&quot;EN-US&quot; style=&quot;font-size:9.5pt;font-family:&lt;br/&gt;&amp;quot;Cascadia Mono&amp;quot;;mso-bidi-font-family:&amp;quot;Cascadia Mono&amp;quot;;color:#A31515;mso-ansi-language:&lt;br/&gt;EN-US&quot;&gt;: &quot;&lt;/span&gt;&lt;span lang=&quot;EN-US&quot; style=&quot;font-size:9.5pt;font-family:&amp;quot;Cascadia Mono&amp;quot;;&lt;br/&gt;mso-bidi-font-family:&amp;quot;Cascadia Mono&amp;quot;;color:black;mso-ansi-language:EN-US&quot;&gt; +&lt;br&gt;UserRoleName)&lt;/span&gt;&lt;/p&gt;&lt;p class=&quot;MsoNormal&quot; style=&quot;margin-bottom:0cm;line-height:normal;mso-layout-grid-align:&lt;br/&gt;none;text-autospace:none&quot;&gt;&lt;span lang=&quot;EN-US&quot; style=&quot;font-size:9.5pt;font-family:&lt;br/&gt;&amp;quot;Cascadia Mono&amp;quot;;mso-bidi-font-family:&amp;quot;Cascadia Mono&amp;quot;;color:black;mso-ansi-language:&lt;br/&gt;EN-US&quot;&gt;&lt;span style=&quot;mso-spacerun:yes&quot;&gt;&amp;nbsp;&amp;nbsp;&amp;nbsp;&amp;nbsp;&amp;nbsp;&amp;nbsp;&amp;nbsp;&amp;nbsp;&amp;nbsp;&amp;nbsp;&amp;nbsp; &lt;/span&gt;&lt;/span&gt;&lt;span style=&quot;font-size:9.5pt;font-family:&amp;quot;Cascadia Mono&amp;quot;;mso-bidi-font-family:&amp;quot;Cascadia Mono&amp;quot;;&lt;br/&gt;color:black&quot;&gt;GoToCatalog();&lt;/span&gt;&lt;/p&gt;&lt;p class=&quot;MsoNormal&quot; style=&quot;margin-bottom:0cm;line-height:normal;mso-layout-grid-align:&lt;br/&gt;none;text-autospace:none&quot;&gt;&lt;span style=&quot;font-size:9.5pt;font-family:&amp;quot;Cascadia Mono&amp;quot;;&lt;br/&gt;mso-bidi-font-family:&amp;quot;Cascadia Mono&amp;quot;;color:black&quot;&gt;&lt;span style=&quot;mso-spacerun:yes&quot;&gt;&amp;nbsp;&amp;nbsp;&amp;nbsp;&amp;nbsp;&amp;nbsp;&amp;nbsp;&amp;nbsp; &lt;/span&gt;}&lt;/span&gt;&lt;/p&gt;&lt;p class=&quot;MsoNormal&quot; style=&quot;margin-bottom:0cm;line-height:normal;mso-layout-grid-align:&lt;br/&gt;none;text-autospace:none&quot;&gt;&lt;span style=&quot;font-size:9.5pt;font-family:&amp;quot;Cascadia Mono&amp;quot;;&lt;br/&gt;mso-bidi-font-family:&amp;quot;Cascadia Mono&amp;quot;;color:black&quot;&gt;&lt;span style=&quot;mso-spacerun:yes&quot;&gt;&amp;nbsp;&amp;nbsp;&amp;nbsp;&amp;nbsp;&amp;nbsp;&amp;nbsp;&amp;nbsp; &lt;/span&gt;&lt;/span&gt;&lt;span style=&quot;font-size:9.5pt;&lt;br/&gt;font-family:&amp;quot;Cascadia Mono&amp;quot;;mso-bidi-font-family:&amp;quot;Cascadia Mono&amp;quot;;color:blue&quot;&gt;else&lt;/span&gt;&lt;/p&gt;&lt;p class=&quot;MsoNormal&quot; style=&quot;margin-bottom:0cm;line-height:normal;mso-layout-grid-align:&lt;br/&gt;none;text-autospace:none&quot;&gt;&lt;span style=&quot;font-size:9.5pt;font-family:&amp;quot;Cascadia Mono&amp;quot;;&lt;br/&gt;mso-bidi-font-family:&amp;quot;Cascadia Mono&amp;quot;;color:black&quot;&gt;&lt;span style=&quot;mso-spacerun:yes&quot;&gt;&amp;nbsp;&amp;nbsp;&amp;nbsp;&amp;nbsp;&amp;nbsp;&amp;nbsp;&amp;nbsp; &lt;/span&gt;{&lt;/span&gt;&lt;/p&gt;&lt;p class=&quot;MsoNormal&quot; style=&quot;margin-bottom:0cm;line-height:normal;mso-layout-grid-align:&lt;br/&gt;none;text-autospace:none&quot;&gt;&lt;span style=&quot;font-size:9.5pt;font-family:&amp;quot;Cascadia Mono&amp;quot;;&lt;br/&gt;mso-bidi-font-family:&amp;quot;Cascadia Mono&amp;quot;;color:black&quot;&gt;&lt;span style=&quot;mso-spacerun:yes&quot;&gt;&amp;nbsp;&amp;nbsp;&amp;nbsp;&amp;nbsp;&amp;nbsp;&amp;nbsp;&amp;nbsp;&amp;nbsp;&amp;nbsp;&amp;nbsp;&amp;nbsp; &lt;/span&gt;MessageBox.Show(&lt;/span&gt;&lt;span style=&quot;font-size:9.5pt;font-family:&amp;quot;Cascadia Mono&amp;quot;;mso-bidi-font-family:&amp;quot;Cascadia Mono&amp;quot;;&lt;br/&gt;color:#A31515&quot;&gt;&quot;что-то пошло не так&quot;&lt;/span&gt;&lt;span style=&quot;font-size:&lt;br/&gt;9.5pt;font-family:&amp;quot;Cascadia Mono&amp;quot;;mso-bidi-font-family:&amp;quot;Cascadia Mono&amp;quot;;&lt;br/&gt;color:black&quot;&gt;);&lt;/span&gt;&lt;/p&gt;&lt;p class=&quot;MsoNormal&quot; style=&quot;margin-bottom:0cm;line-height:normal;mso-layout-grid-align:&lt;br/&gt;none;text-autospace:none&quot;&gt;&lt;span style=&quot;font-size:9.5pt;font-family:&amp;quot;Cascadia Mono&amp;quot;;&lt;br/&gt;mso-bidi-font-family:&amp;quot;Cascadia Mono&amp;quot;;color:black&quot;&gt;&lt;span style=&quot;mso-spacerun:yes&quot;&gt;&amp;nbsp;&amp;nbsp;&amp;nbsp;&amp;nbsp;&amp;nbsp;&amp;nbsp;&amp;nbsp; &lt;/span&gt;&lt;/span&gt;&lt;span lang=&quot;EN-US&quot; style=&quot;font-size:9.5pt;font-family:&amp;quot;Cascadia Mono&amp;quot;;mso-bidi-font-family:&amp;quot;Cascadia Mono&amp;quot;;&lt;br/&gt;color:black;mso-ansi-language:EN-US&quot;&gt;}&lt;/span&gt;&lt;/p&gt;&lt;p class=&quot;MsoNormal&quot; style=&quot;margin-bottom:0cm;line-height:normal;mso-layout-grid-align:&lt;br/&gt;none;text-autospace:none&quot;&gt;&lt;span lang=&quot;EN-US&quot; style=&quot;font-size:9.5pt;font-family:&lt;br/&gt;&amp;quot;Cascadia Mono&amp;quot;;mso-bidi-font-family:&amp;quot;Cascadia Mono&amp;quot;;color:black;mso-ansi-language:&lt;br/&gt;EN-US&quot;&gt;&lt;span style=&quot;mso-spacerun:yes&quot;&gt;&amp;nbsp;&amp;nbsp;&amp;nbsp; &lt;/span&gt;}&lt;/span&gt;&lt;/p&gt;&lt;p class=&quot;MsoNormal&quot; style=&quot;margin-bottom:0cm;line-height:normal;mso-layout-grid-align:&lt;br/&gt;none;text-autospace:none&quot;&gt;&lt;span lang=&quot;EN-US&quot; style=&quot;font-size:9.5pt;font-family:&lt;br/&gt;&amp;quot;Cascadia Mono&amp;quot;;mso-bidi-font-family:&amp;quot;Cascadia Mono&amp;quot;;color:black;mso-ansi-language:&lt;br/&gt;EN-US&quot;&gt;&lt;span style=&quot;mso-spacerun:yes&quot;&gt;&amp;nbsp;&amp;nbsp;&amp;nbsp; &lt;/span&gt;&lt;/span&gt;&lt;span lang=&quot;EN-US&quot; style=&quot;font-size:9.5pt;font-family:&amp;quot;Cascadia Mono&amp;quot;;mso-bidi-font-family:&amp;quot;Cascadia Mono&amp;quot;;&lt;br/&gt;color:blue;mso-ansi-language:EN-US&quot;&gt;private&lt;/span&gt;&lt;span lang=&quot;EN-US&quot; style=&quot;font-size:9.5pt;font-family:&amp;quot;Cascadia Mono&amp;quot;;mso-bidi-font-family:&amp;quot;Cascadia Mono&amp;quot;;&lt;br/&gt;color:black;mso-ansi-language:EN-US&quot;&gt; &lt;/span&gt;&lt;span lang=&quot;EN-US&quot; style=&quot;font-size:&lt;br/&gt;9.5pt;font-family:&amp;quot;Cascadia Mono&amp;quot;;mso-bidi-font-family:&amp;quot;Cascadia Mono&amp;quot;;&lt;br/&gt;color:blue;mso-ansi-language:EN-US&quot;&gt;void&lt;/span&gt;&lt;span lang=&quot;EN-US&quot; style=&quot;font-size:9.5pt;font-family:&amp;quot;Cascadia Mono&amp;quot;;mso-bidi-font-family:&amp;quot;Cascadia Mono&amp;quot;;&lt;br/&gt;color:black;mso-ansi-language:EN-US&quot;&gt; GoToCatalog()&lt;/span&gt;&lt;/p&gt;&lt;p class=&quot;MsoNormal&quot; style=&quot;margin-bottom:0cm;line-height:normal;mso-layout-grid-align:&lt;br/&gt;none;text-autospace:none&quot;&gt;&lt;span lang=&quot;EN-US&quot; style=&quot;font-size:9.5pt;font-family:&lt;br/&gt;&amp;quot;Cascadia Mono&amp;quot;;mso-bidi-font-family:&amp;quot;Cascadia Mono&amp;quot;;color:black;mso-ansi-language:&lt;br/&gt;EN-US&quot;&gt;&lt;span style=&quot;mso-spacerun:yes&quot;&gt;&amp;nbsp;&amp;nbsp;&amp;nbsp; &lt;/span&gt;{&lt;/span&gt;&lt;/p&gt;&lt;p class=&quot;MsoNormal&quot; style=&quot;margin-bottom:0cm;line-height:normal;mso-layout-grid-align:&lt;br/&gt;none;text-autospace:none&quot;&gt;&lt;span lang=&quot;EN-US&quot; style=&quot;font-size:9.5pt;font-family:&lt;br/&gt;&amp;quot;Cascadia Mono&amp;quot;;mso-bidi-font-family:&amp;quot;Cascadia Mono&amp;quot;;color:black;mso-ansi-language:&lt;br/&gt;EN-US&quot;&gt;&lt;span style=&quot;mso-spacerun:yes&quot;&gt;&amp;nbsp;&amp;nbsp;&amp;nbsp;&amp;nbsp;&amp;nbsp;&amp;nbsp;&amp;nbsp; &lt;/span&gt;Catalog catalog = &lt;/span&gt;&lt;span lang=&quot;EN-US&quot; style=&quot;font-size:9.5pt;font-family:&amp;quot;Cascadia Mono&amp;quot;;mso-bidi-font-family:&lt;br/&gt;&amp;quot;Cascadia Mono&amp;quot;;color:blue;mso-ansi-language:EN-US&quot;&gt;new&lt;/span&gt;&lt;span lang=&quot;EN-US&quot; style=&quot;font-size:9.5pt;font-family:&amp;quot;Cascadia Mono&amp;quot;;mso-bidi-font-family:&amp;quot;Cascadia Mono&amp;quot;;&lt;br/&gt;color:black;mso-ansi-language:EN-US&quot;&gt; Catalog();&lt;/span&gt;&lt;/p&gt;&lt;p class=&quot;MsoNormal&quot; style=&quot;margin-bottom:0cm;line-height:normal;mso-layout-grid-align:&lt;br/&gt;none;text-autospace:none&quot;&gt;&lt;span lang=&quot;EN-US&quot; style=&quot;font-size:9.5pt;font-family:&lt;br/&gt;&amp;quot;Cascadia Mono&amp;quot;;mso-bidi-font-family:&amp;quot;Cascadia Mono&amp;quot;;color:black;mso-ansi-language:&lt;br/&gt;EN-US&quot;&gt;&lt;span style=&quot;mso-spacerun:yes&quot;&gt;&amp;nbsp;&amp;nbsp;&amp;nbsp;&amp;nbsp;&amp;nbsp;&amp;nbsp;&amp;nbsp; &lt;/span&gt;&lt;/span&gt;&lt;span lang=&quot;EN-US&quot; style=&quot;font-size:9.5pt;font-family:&amp;quot;Cascadia Mono&amp;quot;;mso-bidi-font-family:&amp;quot;Cascadia Mono&amp;quot;;&lt;br/&gt;color:blue;mso-ansi-language:EN-US&quot;&gt;this&lt;/span&gt;&lt;span lang=&quot;EN-US&quot; style=&quot;font-size:9.5pt;font-family:&amp;quot;Cascadia Mono&amp;quot;;mso-bidi-font-family:&amp;quot;Cascadia Mono&amp;quot;;&lt;br/&gt;color:black;mso-ansi-language:EN-US&quot;&gt;.Hide();&lt;/span&gt;&lt;/p&gt;&lt;p class=&quot;MsoNormal&quot; style=&quot;margin-bottom:0cm;line-height:normal;mso-layout-grid-align:&lt;br/&gt;none;text-autospace:none&quot;&gt;&lt;span lang=&quot;EN-US&quot; style=&quot;font-size:9.5pt;font-family:&lt;br/&gt;&amp;quot;Cascadia Mono&amp;quot;;mso-bidi-font-family:&amp;quot;Cascadia Mono&amp;quot;;color:black;mso-ansi-language:&lt;br/&gt;EN-US&quot;&gt;&lt;span style=&quot;mso-spacerun:yes&quot;&gt;&amp;nbsp;&amp;nbsp;&amp;nbsp;&amp;nbsp;&amp;nbsp;&amp;nbsp;&amp;nbsp; &lt;/span&gt;catalog.ShowDialog();&lt;/span&gt;&lt;/p&gt;&lt;p class=&quot;MsoNormal&quot; style=&quot;margin-bottom:0cm;line-height:normal;mso-layout-grid-align:&lt;br/&gt;none;text-autospace:none&quot;&gt;&lt;span lang=&quot;EN-US&quot; style=&quot;font-size:9.5pt;font-family:&lt;br/&gt;&amp;quot;Cascadia Mono&amp;quot;;mso-bidi-font-family:&amp;quot;Cascadia Mono&amp;quot;;color:black;mso-ansi-language:&lt;br/&gt;EN-US&quot;&gt;&lt;span style=&quot;mso-spacerun:yes&quot;&gt;&amp;nbsp;&amp;nbsp;&amp;nbsp;&amp;nbsp;&amp;nbsp;&amp;nbsp;&amp;nbsp; &lt;/span&gt;&lt;/span&gt;&lt;span lang=&quot;EN-US&quot; style=&quot;font-size:9.5pt;font-family:&amp;quot;Cascadia Mono&amp;quot;;mso-bidi-font-family:&amp;quot;Cascadia Mono&amp;quot;;&lt;br/&gt;color:blue;mso-ansi-language:EN-US&quot;&gt;this&lt;/span&gt;&lt;span lang=&quot;EN-US&quot; style=&quot;font-size:9.5pt;font-family:&amp;quot;Cascadia Mono&amp;quot;;mso-bidi-font-family:&amp;quot;Cascadia Mono&amp;quot;;&lt;br/&gt;color:black;mso-ansi-language:EN-US&quot;&gt;.Show();&lt;/span&gt;&lt;/p&gt;&lt;p class=&quot;MsoNormal&quot; style=&quot;margin-bottom:0cm;line-height:normal;mso-layout-grid-align:&lt;br/&gt;none;text-autospace:none&quot;&gt;&lt;span lang=&quot;EN-US&quot; style=&quot;font-size:9.5pt;font-family:&lt;br/&gt;&amp;quot;Cascadia Mono&amp;quot;;mso-bidi-font-family:&amp;quot;Cascadia Mono&amp;quot;;color:black;mso-ansi-language:&lt;br/&gt;EN-US&quot;&gt;&lt;span style=&quot;mso-spacerun:yes&quot;&gt;&amp;nbsp;&amp;nbsp;&amp;nbsp; &lt;/span&gt;}&lt;/span&gt;&lt;/p&gt;" style="text;whiteSpace=wrap;html=1;" vertex="1" parent="1">
          <mxGeometry x="-2260" y="-245" width="510" height="750" as="geometry" />
        </mxCell>
        <mxCell id="RmPNDtQAe_ROEGnAbES_-2" value="&lt;p class=&quot;MsoNormal&quot; style=&quot;margin-bottom:0cm;line-height:normal;mso-layout-grid-align:&lt;br/&gt;none;text-autospace:none&quot;&gt;&lt;span lang=&quot;EN-US&quot; style=&quot;font-size:9.5pt;font-family:&lt;br/&gt;&amp;quot;Cascadia Mono&amp;quot;;mso-bidi-font-family:&amp;quot;Cascadia Mono&amp;quot;;color:blue;mso-ansi-language:&lt;br/&gt;EN-US&quot;&gt;private&lt;/span&gt;&lt;span lang=&quot;EN-US&quot; style=&quot;font-size:9.5pt;font-family:&amp;quot;Cascadia Mono&amp;quot;;&lt;br/&gt;mso-bidi-font-family:&amp;quot;Cascadia Mono&amp;quot;;color:black;mso-ansi-language:EN-US&quot;&gt; &lt;/span&gt;&lt;span lang=&quot;EN-US&quot; style=&quot;font-size:9.5pt;font-family:&amp;quot;Cascadia Mono&amp;quot;;mso-bidi-font-family:&lt;br/&gt;&amp;quot;Cascadia Mono&amp;quot;;color:blue;mso-ansi-language:EN-US&quot;&gt;void&lt;/span&gt;&lt;span lang=&quot;EN-US&quot; style=&quot;font-size:9.5pt;font-family:&amp;quot;Cascadia Mono&amp;quot;;mso-bidi-font-family:&lt;br/&gt;&amp;quot;Cascadia Mono&amp;quot;;color:black;mso-ansi-language:EN-US&quot;&gt; Window_Loaded(&lt;/span&gt;&lt;span lang=&quot;EN-US&quot; style=&quot;font-size:9.5pt;font-family:&amp;quot;Cascadia Mono&amp;quot;;mso-bidi-font-family:&lt;br/&gt;&amp;quot;Cascadia Mono&amp;quot;;color:blue;mso-ansi-language:EN-US&quot;&gt;object&lt;/span&gt;&lt;span lang=&quot;EN-US&quot; style=&quot;font-size:9.5pt;font-family:&amp;quot;Cascadia Mono&amp;quot;;mso-bidi-font-family:&lt;br/&gt;&amp;quot;Cascadia Mono&amp;quot;;color:black;mso-ansi-language:EN-US&quot;&gt; sender, RoutedEventArgs&lt;br&gt;e)&lt;/span&gt;&lt;/p&gt;&lt;p class=&quot;MsoNormal&quot; style=&quot;margin-bottom:0cm;line-height:normal;mso-layout-grid-align:&lt;br/&gt;none;text-autospace:none&quot;&gt;&lt;span style=&quot;font-size:9.5pt;font-family:&amp;quot;Cascadia Mono&amp;quot;;&lt;br/&gt;mso-bidi-font-family:&amp;quot;Cascadia Mono&amp;quot;;color:black&quot;&gt;{&lt;/span&gt;&lt;/p&gt;&lt;p class=&quot;MsoNormal&quot; style=&quot;margin-bottom:0cm;line-height:normal;mso-layout-grid-align:&lt;br/&gt;none;text-autospace:none&quot;&gt;&lt;span style=&quot;font-size:9.5pt;font-family:&amp;quot;Cascadia Mono&amp;quot;;&lt;br/&gt;mso-bidi-font-family:&amp;quot;Cascadia Mono&amp;quot;;color:black&quot;&gt;&lt;span style=&quot;mso-spacerun:yes&quot;&gt;&amp;nbsp;&amp;nbsp;&amp;nbsp; &lt;/span&gt;&lt;/span&gt;&lt;span style=&quot;font-size:9.5pt;&lt;br/&gt;font-family:&amp;quot;Cascadia Mono&amp;quot;;mso-bidi-font-family:&amp;quot;Cascadia Mono&amp;quot;;color:green&quot;&gt;/Информация&lt;br&gt;о пользовател&lt;/span&gt;&lt;/p&gt;&lt;p class=&quot;MsoNormal&quot; style=&quot;margin-bottom:0cm;line-height:normal;mso-layout-grid-align:&lt;br/&gt;none;text-autospace:none&quot;&gt;&lt;span style=&quot;font-size:9.5pt;font-family:&amp;quot;Cascadia Mono&amp;quot;;&lt;br/&gt;mso-bidi-font-family:&amp;quot;Cascadia Mono&amp;quot;;color:black&quot;&gt;&lt;span style=&quot;mso-spacerun:yes&quot;&gt;&amp;nbsp;&amp;nbsp;&amp;nbsp; &lt;/span&gt;&lt;/span&gt;&lt;span style=&quot;font-size:9.5pt;&lt;br/&gt;font-family:&amp;quot;Cascadia Mono&amp;quot;;mso-bidi-font-family:&amp;quot;Cascadia Mono&amp;quot;;color:blue&quot;&gt;if&lt;/span&gt;&lt;span style=&quot;font-size:9.5pt;font-family:&amp;quot;Cascadia Mono&amp;quot;;mso-bidi-font-family:&amp;quot;Cascadia Mono&amp;quot;;&lt;br/&gt;color:black&quot;&gt; (Helper.User != &lt;/span&gt;&lt;span style=&quot;font-size:9.5pt;font-family:&lt;br/&gt;&amp;quot;Cascadia Mono&amp;quot;;mso-bidi-font-family:&amp;quot;Cascadia Mono&amp;quot;;color:blue&quot;&gt;null&lt;/span&gt;&lt;span style=&quot;font-size:9.5pt;font-family:&amp;quot;Cascadia Mono&amp;quot;;mso-bidi-font-family:&amp;quot;Cascadia Mono&amp;quot;;&lt;br/&gt;color:black&quot;&gt;)&lt;/span&gt;&lt;/p&gt;&lt;p class=&quot;MsoNormal&quot; style=&quot;margin-bottom:0cm;line-height:normal;mso-layout-grid-align:&lt;br/&gt;none;text-autospace:none&quot;&gt;&lt;span style=&quot;font-size:9.5pt;font-family:&amp;quot;Cascadia Mono&amp;quot;;&lt;br/&gt;mso-bidi-font-family:&amp;quot;Cascadia Mono&amp;quot;;color:black&quot;&gt;&lt;span style=&quot;mso-spacerun:yes&quot;&gt;&amp;nbsp;&amp;nbsp;&amp;nbsp; &lt;/span&gt;&lt;/span&gt;&lt;span lang=&quot;EN-US&quot; style=&quot;font-size:&lt;br/&gt;9.5pt;font-family:&amp;quot;Cascadia Mono&amp;quot;;mso-bidi-font-family:&amp;quot;Cascadia Mono&amp;quot;;&lt;br/&gt;color:black;mso-ansi-language:EN-US&quot;&gt;{&lt;/span&gt;&lt;span style=&quot;font-size: 9.5pt; background-color: initial;&quot;&gt;&amp;nbsp;&lt;/span&gt;&lt;span style=&quot;font-size: 9.5pt; background-color: initial;&quot;&gt;&amp;nbsp;&lt;/span&gt;&lt;span style=&quot;font-size: 9.5pt; background-color: initial;&quot;&gt;tbFIO.Text = Helper.User.UserName;&lt;/span&gt;&lt;span style=&quot;background-color: initial; font-size: 9.5pt;&quot; lang=&quot;EN-US&quot;&gt;&amp;nbsp;&lt;/span&gt;&lt;span style=&quot;background-color: initial; font-family: &amp;quot;Cascadia Mono&amp;quot;;&quot;&gt;}&lt;/span&gt;&lt;/p&gt;&lt;p class=&quot;MsoNormal&quot; style=&quot;margin-bottom:0cm;line-height:normal;mso-layout-grid-align:&lt;br/&gt;none;text-autospace:none&quot;&gt;&lt;span style=&quot;font-size:9.5pt;font-family:&amp;quot;Cascadia Mono&amp;quot;;&lt;br/&gt;mso-bidi-font-family:&amp;quot;Cascadia Mono&amp;quot;;color:black&quot;&gt;&lt;span style=&quot;mso-spacerun:yes&quot;&gt;&amp;nbsp;&amp;nbsp;&amp;nbsp; &lt;/span&gt;&lt;/span&gt;&lt;span style=&quot;font-size:9.5pt;&lt;br/&gt;font-family:&amp;quot;Cascadia Mono&amp;quot;;mso-bidi-font-family:&amp;quot;Cascadia Mono&amp;quot;;color:blue&quot;&gt;else&lt;/span&gt;&lt;span style=&quot;font-family: &amp;quot;Cascadia Mono&amp;quot;; font-size: 9.5pt; background-color: initial;&quot;&gt;{&lt;/span&gt;&lt;span style=&quot;background-color: initial; font-size: 9.5pt; font-family: &amp;quot;Cascadia Mono&amp;quot;;&quot;&gt;&amp;nbsp;tbFIO.Text = &lt;/span&gt;&lt;span style=&quot;background-color: initial; font-size: 9.5pt; font-family: &amp;quot;Cascadia Mono&amp;quot;;&quot;&gt;&quot;Гость&quot;&lt;/span&gt;&lt;span style=&quot;background-color: initial; font-size: 9.5pt;&quot;&gt;;&lt;/span&gt;&lt;span style=&quot;font-family: &amp;quot;Cascadia Mono&amp;quot;; font-size: 9.5pt; background-color: initial;&quot;&gt;}&lt;/span&gt;&lt;/p&gt;&lt;p class=&quot;MsoNormal&quot; style=&quot;margin-bottom:0cm;line-height:normal;mso-layout-grid-align:&lt;br/&gt;none;text-autospace:none&quot;&gt;&lt;span style=&quot;font-family: &amp;quot;Cascadia Mono&amp;quot;; font-size: 9.5pt; background-color: initial;&quot;&gt;&amp;nbsp;&lt;/span&gt;&lt;span style=&quot;font-family: &amp;quot;Cascadia Mono&amp;quot;; font-size: 9.5pt; background-color: initial;&quot;&gt;ShowProduct();&lt;/span&gt;&lt;/p&gt;&lt;p class=&quot;MsoNormal&quot;&gt;&lt;span style=&quot;font-size:9.5pt;line-height:107%;font-family:&lt;br/&gt;&amp;quot;Cascadia Mono&amp;quot;;mso-bidi-font-family:&amp;quot;Cascadia Mono&amp;quot;;color:black&quot;&gt;}&lt;/span&gt;&lt;/p&gt;&lt;p class=&quot;MsoNormal&quot; style=&quot;margin-bottom:0cm;line-height:normal;mso-layout-grid-align:&lt;br/&gt;none;text-autospace:none&quot;&gt;&lt;span lang=&quot;EN-US&quot; style=&quot;font-size:9.5pt;font-family:&lt;br/&gt;&amp;quot;Cascadia Mono&amp;quot;;mso-bidi-font-family:&amp;quot;Cascadia Mono&amp;quot;;color:blue;mso-ansi-language:&lt;br/&gt;EN-US&quot;&gt;private&lt;/span&gt;&lt;span lang=&quot;EN-US&quot; style=&quot;font-size:9.5pt;font-family:&amp;quot;Cascadia Mono&amp;quot;;&lt;br/&gt;mso-bidi-font-family:&amp;quot;Cascadia Mono&amp;quot;;color:black;mso-ansi-language:EN-US&quot;&gt; &lt;/span&gt;&lt;span lang=&quot;EN-US&quot; style=&quot;font-size:9.5pt;font-family:&amp;quot;Cascadia Mono&amp;quot;;mso-bidi-font-family:&lt;br/&gt;&amp;quot;Cascadia Mono&amp;quot;;color:blue;mso-ansi-language:EN-US&quot;&gt;void&lt;/span&gt;&lt;span lang=&quot;EN-US&quot; style=&quot;font-size:9.5pt;font-family:&amp;quot;Cascadia Mono&amp;quot;;mso-bidi-font-family:&lt;br/&gt;&amp;quot;Cascadia Mono&amp;quot;;color:black;mso-ansi-language:EN-US&quot;&gt; ShowProduct()&lt;/span&gt;&lt;/p&gt;&lt;p class=&quot;MsoNormal&quot; style=&quot;margin-bottom:0cm;line-height:normal;mso-layout-grid-align:&lt;br/&gt;none;text-autospace:none&quot;&gt;&lt;span lang=&quot;EN-US&quot; style=&quot;font-size:9.5pt;font-family:&lt;br/&gt;&amp;quot;Cascadia Mono&amp;quot;;mso-bidi-font-family:&amp;quot;Cascadia Mono&amp;quot;;color:black;mso-ansi-language:&lt;br/&gt;EN-US&quot;&gt;{&lt;/span&gt;&lt;/p&gt;&lt;p class=&quot;MsoNormal&quot; style=&quot;margin-bottom:0cm;line-height:normal;mso-layout-grid-align:&lt;br/&gt;none;text-autospace:none&quot;&gt;&lt;span lang=&quot;EN-US&quot; style=&quot;font-size:9.5pt;font-family:&lt;br/&gt;&amp;quot;Cascadia Mono&amp;quot;;mso-bidi-font-family:&amp;quot;Cascadia Mono&amp;quot;;color:black;mso-ansi-language:&lt;br/&gt;EN-US&quot;&gt;&lt;span style=&quot;mso-spacerun:yes&quot;&gt;&amp;nbsp;&amp;nbsp;&amp;nbsp; &lt;/span&gt;List&amp;lt;Model.Product&amp;gt;&lt;br&gt;products = &lt;/span&gt;&lt;span lang=&quot;EN-US&quot; style=&quot;font-size:9.5pt;font-family:&amp;quot;Cascadia Mono&amp;quot;;&lt;br/&gt;mso-bidi-font-family:&amp;quot;Cascadia Mono&amp;quot;;color:blue;mso-ansi-language:EN-US&quot;&gt;new&lt;/span&gt;&lt;span lang=&quot;EN-US&quot; style=&quot;font-size:9.5pt;font-family:&amp;quot;Cascadia Mono&amp;quot;;mso-bidi-font-family:&lt;br/&gt;&amp;quot;Cascadia Mono&amp;quot;;color:black;mso-ansi-language:EN-US&quot;&gt;&lt;br&gt;List&amp;lt;Model.Product&amp;gt;();&lt;/span&gt;&lt;/p&gt;&lt;p class=&quot;MsoNormal&quot; style=&quot;margin-bottom:0cm;line-height:normal;mso-layout-grid-align:&lt;br/&gt;none;text-autospace:none&quot;&gt;&lt;span lang=&quot;EN-US&quot; style=&quot;font-size:9.5pt;font-family:&lt;br/&gt;&amp;quot;Cascadia Mono&amp;quot;;mso-bidi-font-family:&amp;quot;Cascadia Mono&amp;quot;;color:black;mso-ansi-language:&lt;br/&gt;EN-US&quot;&gt;&lt;span style=&quot;mso-spacerun:yes&quot;&gt;&amp;nbsp;&amp;nbsp;&amp;nbsp; &lt;/span&gt;products =&lt;br&gt;Helper.DB.Product.ToList();&lt;/span&gt;&lt;/p&gt;&lt;p class=&quot;MsoNormal&quot; style=&quot;margin-bottom:0cm;line-height:normal;mso-layout-grid-align:&lt;br/&gt;none;text-autospace:none&quot;&gt;&lt;span lang=&quot;EN-US&quot; style=&quot;font-size:9.5pt;font-family:&lt;br/&gt;&amp;quot;Cascadia Mono&amp;quot;;mso-bidi-font-family:&amp;quot;Cascadia Mono&amp;quot;;color:black;mso-ansi-language:&lt;br/&gt;EN-US&quot;&gt;&lt;span style=&quot;mso-spacerun:yes&quot;&gt;&amp;nbsp;&amp;nbsp;&amp;nbsp; &lt;/span&gt;listBoxProducts.ItemsSource =&lt;br&gt;products;&lt;/span&gt;&lt;/p&gt;&lt;p class=&quot;MsoNormal&quot; style=&quot;margin-bottom:0cm;line-height:normal;mso-layout-grid-align:&lt;br/&gt;none;text-autospace:none&quot;&gt;&lt;span lang=&quot;EN-US&quot; style=&quot;font-size:9.5pt;font-family:&lt;br/&gt;&amp;quot;Cascadia Mono&amp;quot;;mso-bidi-font-family:&amp;quot;Cascadia Mono&amp;quot;;color:black;mso-ansi-language:&lt;br/&gt;EN-US&quot;&gt;List&amp;lt;Classes.ProductExtended&amp;gt; productExtendeds = &lt;/span&gt;&lt;span lang=&quot;EN-US&quot; style=&quot;font-size:9.5pt;font-family:&amp;quot;Cascadia Mono&amp;quot;;mso-bidi-font-family:&lt;br/&gt;&amp;quot;Cascadia Mono&amp;quot;;color:blue;mso-ansi-language:EN-US&quot;&gt;new&lt;/span&gt;&lt;span lang=&quot;EN-US&quot; style=&quot;font-size:9.5pt;font-family:&amp;quot;Cascadia Mono&amp;quot;;mso-bidi-font-family:&amp;quot;Cascadia Mono&amp;quot;;&lt;br/&gt;color:black;mso-ansi-language:EN-US&quot;&gt; List&amp;lt;Classes.ProductExtended&amp;gt;();&lt;/span&gt;&lt;/p&gt;&lt;p class=&quot;MsoNormal&quot; style=&quot;margin-bottom:0cm;line-height:normal;mso-layout-grid-align:&lt;br/&gt;none;text-autospace:none&quot;&gt;&lt;span lang=&quot;EN-US&quot; style=&quot;font-size:9.5pt;font-family:&lt;br/&gt;&amp;quot;Cascadia Mono&amp;quot;;mso-bidi-font-family:&amp;quot;Cascadia Mono&amp;quot;;color:black;mso-ansi-language:&lt;br/&gt;EN-US&quot;&gt;&lt;span style=&quot;mso-spacerun:yes&quot;&gt;&amp;nbsp;&amp;nbsp;&amp;nbsp; &lt;/span&gt;&lt;/span&gt;&lt;span lang=&quot;EN-US&quot; style=&quot;font-size:9.5pt;font-family:&amp;quot;Cascadia Mono&amp;quot;;mso-bidi-font-family:&amp;quot;Cascadia Mono&amp;quot;;&lt;br/&gt;color:blue;mso-ansi-language:EN-US&quot;&gt;foreach&lt;/span&gt;&lt;span lang=&quot;EN-US&quot; style=&quot;font-size:9.5pt;font-family:&amp;quot;Cascadia Mono&amp;quot;;mso-bidi-font-family:&amp;quot;Cascadia Mono&amp;quot;;&lt;br/&gt;color:black;mso-ansi-language:EN-US&quot;&gt; (Model.Product product &lt;/span&gt;&lt;span lang=&quot;EN-US&quot; style=&quot;font-size:9.5pt;font-family:&amp;quot;Cascadia Mono&amp;quot;;mso-bidi-font-family:&lt;br/&gt;&amp;quot;Cascadia Mono&amp;quot;;color:blue;mso-ansi-language:EN-US&quot;&gt;in&lt;/span&gt;&lt;span lang=&quot;EN-US&quot; style=&quot;font-size:9.5pt;font-family:&amp;quot;Cascadia Mono&amp;quot;;mso-bidi-font-family:&amp;quot;Cascadia Mono&amp;quot;;&lt;br/&gt;color:black;mso-ansi-language:EN-US&quot;&gt; products)&lt;/span&gt;&lt;/p&gt;&lt;p class=&quot;MsoNormal&quot; style=&quot;margin-bottom:0cm;line-height:normal;mso-layout-grid-align:&lt;br/&gt;none;text-autospace:none&quot;&gt;&lt;span lang=&quot;EN-US&quot; style=&quot;font-size:9.5pt;font-family:&lt;br/&gt;&amp;quot;Cascadia Mono&amp;quot;;mso-bidi-font-family:&amp;quot;Cascadia Mono&amp;quot;;color:black;mso-ansi-language:&lt;br/&gt;EN-US&quot;&gt;&lt;span style=&quot;mso-spacerun:yes&quot;&gt;&amp;nbsp;&amp;nbsp;&amp;nbsp; &lt;/span&gt;{&lt;/span&gt;&lt;/p&gt;&lt;br&gt;&lt;br&gt;&lt;p class=&quot;MsoNormal&quot; style=&quot;margin-bottom:0cm;line-height:normal;mso-layout-grid-align:&lt;br/&gt;none;text-autospace:none&quot;&gt;&lt;span lang=&quot;EN-US&quot; style=&quot;font-size:9.5pt;font-family:&lt;br/&gt;&amp;quot;Cascadia Mono&amp;quot;;mso-bidi-font-family:&amp;quot;Cascadia Mono&amp;quot;;color:black;mso-ansi-language:&lt;br/&gt;EN-US&quot;&gt;&lt;span style=&quot;mso-spacerun:yes&quot;&gt;&amp;nbsp;&amp;nbsp;&amp;nbsp;&amp;nbsp;&amp;nbsp;&amp;nbsp;&amp;nbsp; &lt;/span&gt;Classes.ProductExtended&lt;br&gt;productExtended = &lt;/span&gt;&lt;span lang=&quot;EN-US&quot; style=&quot;font-size:9.5pt;font-family:&lt;br/&gt;&amp;quot;Cascadia Mono&amp;quot;;mso-bidi-font-family:&amp;quot;Cascadia Mono&amp;quot;;color:blue;mso-ansi-language:&lt;br/&gt;EN-US&quot;&gt;new&lt;/span&gt;&lt;span lang=&quot;EN-US&quot; style=&quot;font-size:9.5pt;font-family:&amp;quot;Cascadia Mono&amp;quot;;&lt;br/&gt;mso-bidi-font-family:&amp;quot;Cascadia Mono&amp;quot;;color:black;mso-ansi-language:EN-US&quot;&gt;&lt;br&gt;Classes.ProductExtended();&lt;/span&gt;&lt;/p&gt;&lt;br&gt;&lt;br&gt;&lt;p class=&quot;MsoNormal&quot; style=&quot;margin-bottom:0cm;line-height:normal;mso-layout-grid-align:&lt;br/&gt;none;text-autospace:none&quot;&gt;&lt;span lang=&quot;EN-US&quot; style=&quot;font-size:9.5pt;font-family:&lt;br/&gt;&amp;quot;Cascadia Mono&amp;quot;;mso-bidi-font-family:&amp;quot;Cascadia Mono&amp;quot;;color:black;mso-ansi-language:&lt;br/&gt;EN-US&quot;&gt;&lt;span style=&quot;mso-spacerun:yes&quot;&gt;&amp;nbsp;&amp;nbsp;&amp;nbsp;&amp;nbsp;&amp;nbsp;&amp;nbsp;&amp;nbsp; &lt;/span&gt;productExtended.Product =&lt;br&gt;product;&lt;/span&gt;&lt;/p&gt;&lt;br&gt;&lt;br&gt;&lt;p class=&quot;MsoNormal&quot; style=&quot;margin-bottom:0cm;line-height:normal;mso-layout-grid-align:&lt;br/&gt;none;text-autospace:none&quot;&gt;&lt;span lang=&quot;EN-US&quot; style=&quot;font-size:9.5pt;font-family:&lt;br/&gt;&amp;quot;Cascadia Mono&amp;quot;;mso-bidi-font-family:&amp;quot;Cascadia Mono&amp;quot;;color:black;mso-ansi-language:&lt;br/&gt;EN-US&quot;&gt;&lt;span style=&quot;mso-spacerun:yes&quot;&gt;&amp;nbsp;&amp;nbsp;&amp;nbsp;&amp;nbsp;&amp;nbsp;&amp;nbsp;&amp;nbsp;&lt;br&gt;&lt;/span&gt;productExtendeds.Add(productExtended);&lt;/span&gt;&lt;/p&gt;&lt;br&gt;&lt;br&gt;&lt;p class=&quot;MsoNormal&quot; style=&quot;margin-bottom:0cm;line-height:normal;mso-layout-grid-align:&lt;br/&gt;none;text-autospace:none&quot;&gt;&lt;span lang=&quot;EN-US&quot; style=&quot;font-size:9.5pt;font-family:&lt;br/&gt;&amp;quot;Cascadia Mono&amp;quot;;mso-bidi-font-family:&amp;quot;Cascadia Mono&amp;quot;;color:black;mso-ansi-language:&lt;br/&gt;EN-US&quot;&gt;&lt;span style=&quot;mso-spacerun:yes&quot;&gt;&amp;nbsp;&amp;nbsp;&amp;nbsp; &lt;/span&gt;&lt;/span&gt;&lt;span style=&quot;font-size:&lt;br/&gt;9.5pt;font-family:&amp;quot;Cascadia Mono&amp;quot;;mso-bidi-font-family:&amp;quot;Cascadia Mono&amp;quot;;&lt;br/&gt;color:black&quot;&gt;}&lt;/span&gt;&lt;span style=&quot;font-size:9.5pt;font-family:&amp;quot;Cascadia Mono&amp;quot;;&lt;br/&gt;mso-bidi-font-family:&amp;quot;Cascadia Mono&amp;quot;;color:green&quot;&gt;&lt;/span&gt;&lt;/p&gt;&lt;br&gt;&lt;br&gt;&lt;p class=&quot;MsoNormal&quot; style=&quot;margin-bottom:0cm;line-height:normal;mso-layout-grid-align:&lt;br/&gt;none;text-autospace:none&quot;&gt;&lt;span style=&quot;font-size:9.5pt;font-family:&amp;quot;Cascadia Mono&amp;quot;;&lt;br/&gt;mso-bidi-font-family:&amp;quot;Cascadia Mono&amp;quot;;color:black&quot;&gt;&lt;span style=&quot;mso-spacerun:yes&quot;&gt;&amp;nbsp;&amp;nbsp;&amp;nbsp; &lt;/span&gt;countAll = products.Count();&lt;/span&gt;&lt;span lang=&quot;EN-US&quot; style=&quot;font-size:9.5pt;font-family:&amp;quot;Cascadia Mono&amp;quot;;mso-bidi-font-family:&lt;br/&gt;&amp;quot;Cascadia Mono&amp;quot;;color:green;mso-ansi-language:EN-US&quot;&gt;&lt;/span&gt;&lt;/p&gt;&lt;br&gt;&lt;br&gt;&lt;p class=&quot;MsoNormal&quot; style=&quot;margin-bottom:0cm;line-height:normal;mso-layout-grid-align:&lt;br/&gt;none;text-autospace:none&quot;&gt;&lt;span lang=&quot;EN-US&quot; style=&quot;font-size:9.5pt;font-family:&lt;br/&gt;&amp;quot;Cascadia Mono&amp;quot;;mso-bidi-font-family:&amp;quot;Cascadia Mono&amp;quot;;color:black;mso-ansi-language:&lt;br/&gt;EN-US&quot;&gt;&lt;span style=&quot;mso-spacerun:yes&quot;&gt;&amp;nbsp;&lt;/span&gt;&lt;span style=&quot;mso-spacerun:yes&quot;&gt;&amp;nbsp;&amp;nbsp;&lt;br&gt;&lt;/span&gt;products = products.Where(x =&amp;gt; (x.ProductDiscount &amp;gt;=&lt;br&gt;arrayDiscount[filterDiscount, 0]&lt;/span&gt;&lt;/p&gt;&lt;br&gt;&lt;br&gt;&lt;p class=&quot;MsoNormal&quot; style=&quot;margin-bottom:0cm;line-height:normal;mso-layout-grid-align:&lt;br/&gt;none;text-autospace:none&quot;&gt;&lt;span lang=&quot;EN-US&quot; style=&quot;font-size:9.5pt;font-family:&lt;br/&gt;&amp;quot;Cascadia Mono&amp;quot;;mso-bidi-font-family:&amp;quot;Cascadia Mono&amp;quot;;color:black;mso-ansi-language:&lt;br/&gt;EN-US&quot;&gt;&lt;span style=&quot;mso-spacerun:yes&quot;&gt;&amp;nbsp;&amp;nbsp;&amp;nbsp;&amp;nbsp;&amp;nbsp;&amp;nbsp;&amp;nbsp;&amp;nbsp;&amp;nbsp;&amp;nbsp;&amp;nbsp;&amp;nbsp;&amp;nbsp;&amp;nbsp;&amp;nbsp;&amp;nbsp;&amp;nbsp;&amp;nbsp;&amp;nbsp;&amp;nbsp;&amp;nbsp;&amp;nbsp;&amp;nbsp;&amp;nbsp;&amp;nbsp;&amp;nbsp;&amp;nbsp;&amp;nbsp;&amp;nbsp;&amp;nbsp;&amp;nbsp;&amp;nbsp; &lt;/span&gt;&lt;span style=&quot;mso-spacerun:yes&quot;&gt;&amp;nbsp;&amp;nbsp;&amp;nbsp;&lt;/span&gt;&amp;amp;&amp;amp; x.ProductDiscount &amp;lt;=&lt;br&gt;arrayDiscount[filterDiscount, 1])).ToList();&lt;/span&gt;&lt;/p&gt;&lt;br&gt;&lt;br&gt;&lt;p class=&quot;MsoNormal&quot; style=&quot;margin-bottom:0cm;line-height:normal;mso-layout-grid-align:&lt;br/&gt;none;text-autospace:none&quot;&gt;&lt;span lang=&quot;EN-US&quot; style=&quot;font-size:9.5pt;font-family:&lt;br/&gt;&amp;quot;Cascadia Mono&amp;quot;;mso-bidi-font-family:&amp;quot;Cascadia Mono&amp;quot;;color:black;mso-ansi-language:&lt;br/&gt;EN-US&quot;&gt;&lt;span style=&quot;mso-spacerun:yes&quot;&gt;&amp;nbsp;&amp;nbsp;&amp;nbsp; &lt;/span&gt;&lt;/span&gt;&lt;span lang=&quot;EN-US&quot; style=&quot;font-size:9.5pt;font-family:&amp;quot;Cascadia Mono&amp;quot;;mso-bidi-font-family:&amp;quot;Cascadia Mono&amp;quot;;&lt;br/&gt;color:green;mso-ansi-language:EN-US&quot;&gt;//}&lt;/span&gt;&lt;/p&gt;&lt;br&gt;&lt;br&gt;&lt;p class=&quot;MsoNormal&quot; style=&quot;margin-bottom:0cm;line-height:normal;mso-layout-grid-align:&lt;br/&gt;none;text-autospace:none&quot;&gt;&lt;span lang=&quot;EN-US&quot; style=&quot;font-size:9.5pt;font-family:&lt;br/&gt;&amp;quot;Cascadia Mono&amp;quot;;mso-bidi-font-family:&amp;quot;Cascadia Mono&amp;quot;;color:black;mso-ansi-language:&lt;br/&gt;EN-US&quot;&gt;&lt;span style=&quot;mso-spacerun:yes&quot;&gt;&amp;nbsp;&amp;nbsp;&amp;nbsp; &lt;/span&gt;&lt;/span&gt;&lt;span lang=&quot;EN-US&quot; style=&quot;font-size:9.5pt;font-family:&amp;quot;Cascadia Mono&amp;quot;;mso-bidi-font-family:&amp;quot;Cascadia Mono&amp;quot;;&lt;br/&gt;color:blue;mso-ansi-language:EN-US&quot;&gt;if&lt;/span&gt;&lt;span lang=&quot;EN-US&quot; style=&quot;font-size:&lt;br/&gt;9.5pt;font-family:&amp;quot;Cascadia Mono&amp;quot;;mso-bidi-font-family:&amp;quot;Cascadia Mono&amp;quot;;&lt;br/&gt;color:black;mso-ansi-language:EN-US&quot;&gt; (comboCategory.SelectedIndex &amp;gt; 0)&lt;/span&gt;&lt;/p&gt;&lt;br&gt;&lt;br&gt;&lt;p class=&quot;MsoNormal&quot; style=&quot;margin-bottom:0cm;line-height:normal;mso-layout-grid-align:&lt;br/&gt;none;text-autospace:none&quot;&gt;&lt;span lang=&quot;EN-US&quot; style=&quot;font-size:9.5pt;font-family:&lt;br/&gt;&amp;quot;Cascadia Mono&amp;quot;;mso-bidi-font-family:&amp;quot;Cascadia Mono&amp;quot;;color:black;mso-ansi-language:&lt;br/&gt;EN-US&quot;&gt;&lt;span style=&quot;mso-spacerun:yes&quot;&gt;&amp;nbsp;&amp;nbsp;&amp;nbsp; &lt;/span&gt;{&lt;/span&gt;&lt;/p&gt;&lt;br&gt;&lt;br&gt;&lt;p class=&quot;MsoNormal&quot; style=&quot;margin-bottom:0cm;line-height:normal;mso-layout-grid-align:&lt;br/&gt;none;text-autospace:none&quot;&gt;&lt;span lang=&quot;EN-US&quot; style=&quot;font-size:9.5pt;font-family:&lt;br/&gt;&amp;quot;Cascadia Mono&amp;quot;;mso-bidi-font-family:&amp;quot;Cascadia Mono&amp;quot;;color:black;mso-ansi-language:&lt;br/&gt;EN-US&quot;&gt;&lt;span style=&quot;mso-spacerun:yes&quot;&gt;&amp;nbsp;&amp;nbsp;&amp;nbsp;&amp;nbsp;&amp;nbsp;&amp;nbsp;&amp;nbsp; &lt;/span&gt;products =&lt;br&gt;products.Where(x =&amp;gt; x.ProductCategoryId ==&lt;/span&gt;&lt;/p&gt;&lt;br&gt;&lt;br&gt;&lt;p class=&quot;MsoNormal&quot; style=&quot;margin-bottom:0cm;line-height:normal;mso-layout-grid-align:&lt;br/&gt;none;text-autospace:none&quot;&gt;&lt;span lang=&quot;EN-US&quot; style=&quot;font-size:9.5pt;font-family:&lt;br/&gt;&amp;quot;Cascadia Mono&amp;quot;;mso-bidi-font-family:&amp;quot;Cascadia Mono&amp;quot;;color:black;mso-ansi-language:&lt;br/&gt;EN-US&quot;&gt;&lt;span style=&quot;mso-spacerun:yes&quot;&gt;&amp;nbsp;&amp;nbsp;&amp;nbsp;&amp;nbsp;&amp;nbsp;&amp;nbsp;&amp;nbsp;&amp;nbsp;&amp;nbsp;&amp;nbsp;&amp;nbsp;&amp;nbsp;&amp;nbsp;&amp;nbsp;&amp;nbsp;&amp;nbsp;&amp;nbsp;&amp;nbsp;&amp;nbsp;&amp;nbsp;&amp;nbsp;&amp;nbsp;&amp;nbsp;&amp;nbsp;&amp;nbsp;&amp;nbsp;&amp;nbsp;&amp;nbsp;&amp;nbsp;&amp;nbsp;&amp;nbsp;&amp;nbsp;&amp;nbsp;&amp;nbsp;&amp;nbsp;&amp;nbsp;&amp;nbsp;&amp;nbsp;&amp;nbsp;&amp;nbsp;&amp;nbsp;&amp;nbsp;&amp;nbsp;&amp;nbsp;&amp;nbsp;&amp;nbsp;&amp;nbsp;&amp;nbsp;&amp;nbsp;&amp;nbsp;&amp;nbsp;&amp;nbsp;&lt;br&gt;&lt;/span&gt;comboCategory.SelectedIndex).ToList();&lt;/span&gt;&lt;/p&gt;&lt;br&gt;&lt;br&gt;&lt;p class=&quot;MsoNormal&quot; style=&quot;margin-bottom:0cm;line-height:normal;mso-layout-grid-align:&lt;br/&gt;none;text-autospace:none&quot;&gt;&lt;span lang=&quot;EN-US&quot; style=&quot;font-size:9.5pt;font-family:&lt;br/&gt;&amp;quot;Cascadia Mono&amp;quot;;mso-bidi-font-family:&amp;quot;Cascadia Mono&amp;quot;;color:black;mso-ansi-language:&lt;br/&gt;EN-US&quot;&gt;&lt;span style=&quot;mso-spacerun:yes&quot;&gt;&amp;nbsp;&amp;nbsp;&amp;nbsp; &lt;/span&gt;}&lt;/span&gt;&lt;/p&gt;&lt;br&gt;&lt;br&gt;&lt;p class=&quot;MsoNormal&quot; style=&quot;margin-bottom:0cm;line-height:normal;mso-layout-grid-align:&lt;br/&gt;none;text-autospace:none&quot;&gt;&lt;span lang=&quot;EN-US&quot; style=&quot;font-size:9.5pt;font-family:&lt;br/&gt;&amp;quot;Cascadia Mono&amp;quot;;mso-bidi-font-family:&amp;quot;Cascadia Mono&amp;quot;;color:black;mso-ansi-language:&lt;br/&gt;EN-US&quot;&gt;&lt;span style=&quot;mso-spacerun:yes&quot;&gt;&amp;nbsp;&amp;nbsp;&amp;nbsp; &lt;/span&gt;&lt;/span&gt;&lt;span lang=&quot;EN-US&quot; style=&quot;font-size:9.5pt;font-family:&amp;quot;Cascadia Mono&amp;quot;;mso-bidi-font-family:&amp;quot;Cascadia Mono&amp;quot;;&lt;br/&gt;color:green;mso-ansi-language:EN-US&quot;&gt;//&lt;/span&gt;&lt;span style=&quot;font-size:9.5pt;&lt;br/&gt;font-family:&amp;quot;Cascadia Mono&amp;quot;;mso-bidi-font-family:&amp;quot;Cascadia Mono&amp;quot;;color:green&quot;&gt;Поиск&lt;/span&gt;&lt;span style=&quot;font-size:9.5pt;font-family:&amp;quot;Cascadia Mono&amp;quot;;mso-bidi-font-family:&amp;quot;Cascadia Mono&amp;quot;;&lt;br/&gt;color:green;mso-ansi-language:EN-US&quot;&gt; &lt;/span&gt;&lt;span style=&quot;font-size:9.5pt;&lt;br/&gt;font-family:&amp;quot;Cascadia Mono&amp;quot;;mso-bidi-font-family:&amp;quot;Cascadia Mono&amp;quot;;color:green&quot;&gt;по&lt;/span&gt;&lt;span style=&quot;font-size:9.5pt;font-family:&amp;quot;Cascadia Mono&amp;quot;;mso-bidi-font-family:&amp;quot;Cascadia Mono&amp;quot;;&lt;br/&gt;color:green;mso-ansi-language:EN-US&quot;&gt; &lt;/span&gt;&lt;span style=&quot;font-size:9.5pt;&lt;br/&gt;font-family:&amp;quot;Cascadia Mono&amp;quot;;mso-bidi-font-family:&amp;quot;Cascadia Mono&amp;quot;;color:green&quot;&gt;названию&lt;/span&gt;&lt;span lang=&quot;EN-US&quot; style=&quot;font-size:9.5pt;font-family:&amp;quot;Cascadia Mono&amp;quot;;mso-bidi-font-family:&lt;br/&gt;&amp;quot;Cascadia Mono&amp;quot;;color:green;mso-ansi-language:EN-US&quot;&gt;&lt;/span&gt;&lt;/p&gt;&lt;br&gt;&lt;br&gt;&lt;p class=&quot;MsoNormal&quot; style=&quot;margin-bottom:0cm;line-height:normal;mso-layout-grid-align:&lt;br/&gt;none;text-autospace:none&quot;&gt;&lt;span lang=&quot;EN-US&quot; style=&quot;font-size:9.5pt;font-family:&lt;br/&gt;&amp;quot;Cascadia Mono&amp;quot;;mso-bidi-font-family:&amp;quot;Cascadia Mono&amp;quot;;color:black;mso-ansi-language:&lt;br/&gt;EN-US&quot;&gt;&lt;span style=&quot;mso-spacerun:yes&quot;&gt;&amp;nbsp;&amp;nbsp;&amp;nbsp; &lt;/span&gt;&lt;/span&gt;&lt;span lang=&quot;EN-US&quot; style=&quot;font-size:9.5pt;font-family:&amp;quot;Cascadia Mono&amp;quot;;mso-bidi-font-family:&amp;quot;Cascadia Mono&amp;quot;;&lt;br/&gt;color:blue;mso-ansi-language:EN-US&quot;&gt;if&lt;/span&gt;&lt;span lang=&quot;EN-US&quot; style=&quot;font-size:&lt;br/&gt;9.5pt;font-family:&amp;quot;Cascadia Mono&amp;quot;;mso-bidi-font-family:&amp;quot;Cascadia Mono&amp;quot;;&lt;br/&gt;color:black;mso-ansi-language:EN-US&quot;&gt; (!String.IsNullOrEmpty(searchProduct))&lt;/span&gt;&lt;/p&gt;&lt;br&gt;&lt;br&gt;&lt;p class=&quot;MsoNormal&quot; style=&quot;margin-bottom:0cm;line-height:normal;mso-layout-grid-align:&lt;br/&gt;none;text-autospace:none&quot;&gt;&lt;span lang=&quot;EN-US&quot; style=&quot;font-size:9.5pt;font-family:&lt;br/&gt;&amp;quot;Cascadia Mono&amp;quot;;mso-bidi-font-family:&amp;quot;Cascadia Mono&amp;quot;;color:black;mso-ansi-language:&lt;br/&gt;EN-US&quot;&gt;&lt;span style=&quot;mso-spacerun:yes&quot;&gt;&amp;nbsp;&amp;nbsp;&amp;nbsp; &lt;/span&gt;{&lt;/span&gt;&lt;/p&gt;&lt;br&gt;&lt;br&gt;&lt;p class=&quot;MsoNormal&quot; style=&quot;margin-bottom:0cm;line-height:normal;mso-layout-grid-align:&lt;br/&gt;none;text-autospace:none&quot;&gt;&lt;span lang=&quot;EN-US&quot; style=&quot;font-size:9.5pt;font-family:&lt;br/&gt;&amp;quot;Cascadia Mono&amp;quot;;mso-bidi-font-family:&amp;quot;Cascadia Mono&amp;quot;;color:black;mso-ansi-language:&lt;br/&gt;EN-US&quot;&gt;&lt;span style=&quot;mso-spacerun:yes&quot;&gt;&amp;nbsp;&amp;nbsp;&amp;nbsp;&amp;nbsp;&amp;nbsp;&amp;nbsp;&amp;nbsp; &lt;/span&gt;products =&lt;br&gt;products.Where(x =&amp;gt; x.ProductName.Contains(searchProduct)).ToList();&lt;/span&gt;&lt;/p&gt;&lt;br&gt;&lt;br&gt;&lt;p class=&quot;MsoNormal&quot; style=&quot;margin-bottom:0cm;line-height:normal;mso-layout-grid-align:&lt;br/&gt;none;text-autospace:none&quot;&gt;&lt;span lang=&quot;EN-US&quot; style=&quot;font-size:9.5pt;font-family:&lt;br/&gt;&amp;quot;Cascadia Mono&amp;quot;;mso-bidi-font-family:&amp;quot;Cascadia Mono&amp;quot;;color:black;mso-ansi-language:&lt;br/&gt;EN-US&quot;&gt;&lt;span style=&quot;mso-spacerun:yes&quot;&gt;&amp;nbsp;&amp;nbsp;&amp;nbsp; &lt;/span&gt;}&lt;/span&gt;&lt;/p&gt;&lt;br&gt;&lt;br&gt;&lt;p class=&quot;MsoNormal&quot; style=&quot;margin-bottom:0cm;line-height:normal;mso-layout-grid-align:&lt;br/&gt;none;text-autospace:none&quot;&gt;&lt;span lang=&quot;EN-US&quot; style=&quot;font-size:9.5pt;font-family:&lt;br/&gt;&amp;quot;Cascadia Mono&amp;quot;;mso-bidi-font-family:&amp;quot;Cascadia Mono&amp;quot;;color:black;mso-ansi-language:&lt;br/&gt;EN-US&quot;&gt;&lt;span style=&quot;mso-spacerun:yes&quot;&gt;&amp;nbsp;&amp;nbsp;&amp;nbsp; &lt;/span&gt;&lt;/span&gt;&lt;span lang=&quot;EN-US&quot; style=&quot;font-size:9.5pt;font-family:&amp;quot;Cascadia Mono&amp;quot;;mso-bidi-font-family:&amp;quot;Cascadia Mono&amp;quot;;&lt;br/&gt;color:green;mso-ansi-language:EN-US&quot;&gt;//&lt;/span&gt;&lt;span style=&quot;font-size:9.5pt;&lt;br/&gt;font-family:&amp;quot;Cascadia Mono&amp;quot;;mso-bidi-font-family:&amp;quot;Cascadia Mono&amp;quot;;color:green&quot;&gt;Сортировка&lt;/span&gt;&lt;span lang=&quot;EN-US&quot; style=&quot;font-size:9.5pt;font-family:&amp;quot;Cascadia Mono&amp;quot;;mso-bidi-font-family:&lt;br/&gt;&amp;quot;Cascadia Mono&amp;quot;;color:green;mso-ansi-language:EN-US&quot;&gt;&lt;/span&gt;&lt;/p&gt;&lt;br&gt;&lt;br&gt;&lt;p class=&quot;MsoNormal&quot; style=&quot;margin-bottom:0cm;line-height:normal;mso-layout-grid-align:&lt;br/&gt;none;text-autospace:none&quot;&gt;&lt;span lang=&quot;EN-US&quot; style=&quot;font-size:9.5pt;font-family:&lt;br/&gt;&amp;quot;Cascadia Mono&amp;quot;;mso-bidi-font-family:&amp;quot;Cascadia Mono&amp;quot;;color:black;mso-ansi-language:&lt;br/&gt;EN-US&quot;&gt;&lt;span style=&quot;mso-spacerun:yes&quot;&gt;&amp;nbsp;&amp;nbsp;&amp;nbsp; &lt;/span&gt;&lt;/span&gt;&lt;span lang=&quot;EN-US&quot; style=&quot;font-size:9.5pt;font-family:&amp;quot;Cascadia Mono&amp;quot;;mso-bidi-font-family:&amp;quot;Cascadia Mono&amp;quot;;&lt;br/&gt;color:blue;mso-ansi-language:EN-US&quot;&gt;if&lt;/span&gt;&lt;span lang=&quot;EN-US&quot; style=&quot;font-size:&lt;br/&gt;9.5pt;font-family:&amp;quot;Cascadia Mono&amp;quot;;mso-bidi-font-family:&amp;quot;Cascadia Mono&amp;quot;;&lt;br/&gt;color:black;mso-ansi-language:EN-US&quot;&gt; (sort == &lt;/span&gt;&lt;span lang=&quot;EN-US&quot; style=&quot;font-size:9.5pt;font-family:&amp;quot;Cascadia Mono&amp;quot;;mso-bidi-font-family:&amp;quot;Cascadia Mono&amp;quot;;&lt;br/&gt;color:#A31515;mso-ansi-language:EN-US&quot;&gt;&quot;ASC&quot;&lt;/span&gt;&lt;span lang=&quot;EN-US&quot; style=&quot;font-size:9.5pt;font-family:&amp;quot;Cascadia Mono&amp;quot;;mso-bidi-font-family:&amp;quot;Cascadia Mono&amp;quot;;&lt;br/&gt;color:black;mso-ansi-language:EN-US&quot;&gt;)&lt;/span&gt;&lt;/p&gt;&lt;br&gt;&lt;br&gt;&lt;p class=&quot;MsoNormal&quot; style=&quot;margin-bottom:0cm;line-height:normal;mso-layout-grid-align:&lt;br/&gt;none;text-autospace:none&quot;&gt;&lt;span lang=&quot;EN-US&quot; style=&quot;font-size:9.5pt;font-family:&lt;br/&gt;&amp;quot;Cascadia Mono&amp;quot;;mso-bidi-font-family:&amp;quot;Cascadia Mono&amp;quot;;color:black;mso-ansi-language:&lt;br/&gt;EN-US&quot;&gt;&lt;span style=&quot;mso-spacerun:yes&quot;&gt;&amp;nbsp;&amp;nbsp;&amp;nbsp; &lt;/span&gt;{&lt;/span&gt;&lt;/p&gt;&lt;br&gt;&lt;br&gt;&lt;p class=&quot;MsoNormal&quot; style=&quot;margin-bottom:0cm;line-height:normal;mso-layout-grid-align:&lt;br/&gt;none;text-autospace:none&quot;&gt;&lt;span lang=&quot;EN-US&quot; style=&quot;font-size:9.5pt;font-family:&lt;br/&gt;&amp;quot;Cascadia Mono&amp;quot;;mso-bidi-font-family:&amp;quot;Cascadia Mono&amp;quot;;color:black;mso-ansi-language:&lt;br/&gt;EN-US&quot;&gt;&lt;span style=&quot;mso-spacerun:yes&quot;&gt;&amp;nbsp;&amp;nbsp;&amp;nbsp;&amp;nbsp;&amp;nbsp;&amp;nbsp;&amp;nbsp; &lt;/span&gt;products =&lt;br&gt;products.OrderBy(x =&amp;gt; x.ProductCost).ToList();&lt;/span&gt;&lt;/p&gt;&lt;br&gt;&lt;br&gt;&lt;p class=&quot;MsoNormal&quot; style=&quot;margin-bottom:0cm;line-height:normal;mso-layout-grid-align:&lt;br/&gt;none;text-autospace:none&quot;&gt;&lt;span lang=&quot;EN-US&quot; style=&quot;font-size:9.5pt;font-family:&lt;br/&gt;&amp;quot;Cascadia Mono&amp;quot;;mso-bidi-font-family:&amp;quot;Cascadia Mono&amp;quot;;color:black;mso-ansi-language:&lt;br/&gt;EN-US&quot;&gt;&lt;span style=&quot;mso-spacerun:yes&quot;&gt;&amp;nbsp;&amp;nbsp;&amp;nbsp; &lt;/span&gt;}&lt;/span&gt;&lt;/p&gt;&lt;br&gt;&lt;br&gt;&lt;p class=&quot;MsoNormal&quot; style=&quot;margin-bottom:0cm;line-height:normal;mso-layout-grid-align:&lt;br/&gt;none;text-autospace:none&quot;&gt;&lt;span lang=&quot;EN-US&quot; style=&quot;font-size:9.5pt;font-family:&lt;br/&gt;&amp;quot;Cascadia Mono&amp;quot;;mso-bidi-font-family:&amp;quot;Cascadia Mono&amp;quot;;color:black;mso-ansi-language:&lt;br/&gt;EN-US&quot;&gt;&lt;span style=&quot;mso-spacerun:yes&quot;&gt;&amp;nbsp;&amp;nbsp;&amp;nbsp; &lt;/span&gt;&lt;/span&gt;&lt;span lang=&quot;EN-US&quot; style=&quot;font-size:9.5pt;font-family:&amp;quot;Cascadia Mono&amp;quot;;mso-bidi-font-family:&amp;quot;Cascadia Mono&amp;quot;;&lt;br/&gt;color:blue;mso-ansi-language:EN-US&quot;&gt;else&lt;/span&gt;&lt;/p&gt;&lt;br&gt;&lt;br&gt;&lt;p class=&quot;MsoNormal&quot; style=&quot;margin-bottom:0cm;line-height:normal;mso-layout-grid-align:&lt;br/&gt;none;text-autospace:none&quot;&gt;&lt;span lang=&quot;EN-US&quot; style=&quot;font-size:9.5pt;font-family:&lt;br/&gt;&amp;quot;Cascadia Mono&amp;quot;;mso-bidi-font-family:&amp;quot;Cascadia Mono&amp;quot;;color:black;mso-ansi-language:&lt;br/&gt;EN-US&quot;&gt;&lt;span style=&quot;mso-spacerun:yes&quot;&gt;&amp;nbsp;&amp;nbsp;&amp;nbsp; &lt;/span&gt;{&lt;/span&gt;&lt;/p&gt;&lt;br&gt;&lt;br&gt;&lt;p class=&quot;MsoNormal&quot; style=&quot;margin-bottom:0cm;line-height:normal;mso-layout-grid-align:&lt;br/&gt;none;text-autospace:none&quot;&gt;&lt;span lang=&quot;EN-US&quot; style=&quot;font-size:9.5pt;font-family:&lt;br/&gt;&amp;quot;Cascadia Mono&amp;quot;;mso-bidi-font-family:&amp;quot;Cascadia Mono&amp;quot;;color:black;mso-ansi-language:&lt;br/&gt;EN-US&quot;&gt;&lt;span style=&quot;mso-spacerun:yes&quot;&gt;&amp;nbsp;&amp;nbsp;&amp;nbsp;&amp;nbsp;&amp;nbsp;&amp;nbsp; &lt;/span&gt;&lt;span style=&quot;mso-spacerun:yes&quot;&gt;&amp;nbsp;&lt;/span&gt;products = products.OrderByDescending(x =&amp;gt;&lt;br&gt;x.ProductCost).ToList();&lt;/span&gt;&lt;/p&gt;&lt;br&gt;&lt;br&gt;&lt;p class=&quot;MsoNormal&quot; style=&quot;margin-bottom:0cm;line-height:normal;mso-layout-grid-align:&lt;br/&gt;none;text-autospace:none&quot;&gt;&lt;span lang=&quot;EN-US&quot; style=&quot;font-size:9.5pt;font-family:&lt;br/&gt;&amp;quot;Cascadia Mono&amp;quot;;mso-bidi-font-family:&amp;quot;Cascadia Mono&amp;quot;;color:black;mso-ansi-language:&lt;br/&gt;EN-US&quot;&gt;&lt;span style=&quot;mso-spacerun:yes&quot;&gt;&amp;nbsp;&amp;nbsp;&amp;nbsp; &lt;/span&gt;}&lt;/span&gt;&lt;span lang=&quot;EN-US&quot; style=&quot;font-size:9.5pt;font-family:&amp;quot;Cascadia Mono&amp;quot;;mso-bidi-font-family:&amp;quot;Cascadia Mono&amp;quot;;&lt;br/&gt;color:green;mso-ansi-language:EN-US&quot;&gt;&lt;/span&gt;&lt;/p&gt;&lt;br&gt;&lt;br&gt;&lt;p class=&quot;MsoNormal&quot; style=&quot;margin-bottom:0cm;line-height:normal;mso-layout-grid-align:&lt;br/&gt;none;text-autospace:none&quot;&gt;&lt;span lang=&quot;EN-US&quot; style=&quot;font-size:9.5pt;font-family:&lt;br/&gt;&amp;quot;Cascadia Mono&amp;quot;;mso-bidi-font-family:&amp;quot;Cascadia Mono&amp;quot;;color:black;mso-ansi-language:&lt;br/&gt;EN-US&quot;&gt;&lt;span style=&quot;mso-spacerun:yes&quot;&gt;&amp;nbsp;&lt;/span&gt;&lt;span style=&quot;mso-spacerun:yes&quot;&gt;&amp;nbsp;&amp;nbsp;&lt;br&gt;&lt;/span&gt;&lt;/span&gt;&lt;span lang=&quot;EN-US&quot; style=&quot;font-size:9.5pt;font-family:&amp;quot;Cascadia Mono&amp;quot;;&lt;br/&gt;mso-bidi-font-family:&amp;quot;Cascadia Mono&amp;quot;;color:blue;mso-ansi-language:EN-US&quot;&gt;int&lt;/span&gt;&lt;span lang=&quot;EN-US&quot; style=&quot;font-size:9.5pt;font-family:&amp;quot;Cascadia Mono&amp;quot;;mso-bidi-font-family:&lt;br/&gt;&amp;quot;Cascadia Mono&amp;quot;;color:black;mso-ansi-language:EN-US&quot;&gt; filterCount =&lt;br&gt;products.Count;&lt;/span&gt;&lt;/p&gt;&lt;br&gt;&lt;br&gt;&lt;p class=&quot;MsoNormal&quot; style=&quot;margin-bottom:0cm;line-height:normal;mso-layout-grid-align:&lt;br/&gt;none;text-autospace:none&quot;&gt;&lt;span lang=&quot;EN-US&quot; style=&quot;font-size:9.5pt;font-family:&lt;br/&gt;&amp;quot;Cascadia Mono&amp;quot;;mso-bidi-font-family:&amp;quot;Cascadia Mono&amp;quot;;color:black;mso-ansi-language:&lt;br/&gt;EN-US&quot;&gt;&lt;span style=&quot;mso-spacerun:yes&quot;&gt;&amp;nbsp;&amp;nbsp;&amp;nbsp; &lt;/span&gt;tbCount.Text = filterCount + &lt;/span&gt;&lt;span lang=&quot;EN-US&quot; style=&quot;font-size:9.5pt;font-family:&amp;quot;Cascadia Mono&amp;quot;;mso-bidi-font-family:&lt;br/&gt;&amp;quot;Cascadia Mono&amp;quot;;color:#A31515;mso-ansi-language:EN-US&quot;&gt;&quot; &lt;/span&gt;&lt;span style=&quot;font-size:9.5pt;font-family:&amp;quot;Cascadia Mono&amp;quot;;mso-bidi-font-family:&amp;quot;Cascadia Mono&amp;quot;;&lt;br/&gt;color:#A31515&quot;&gt;Из&lt;/span&gt;&lt;span lang=&quot;EN-US&quot; style=&quot;font-size:9.5pt;font-family:&lt;br/&gt;&amp;quot;Cascadia Mono&amp;quot;;mso-bidi-font-family:&amp;quot;Cascadia Mono&amp;quot;;color:#A31515;mso-ansi-language:&lt;br/&gt;EN-US&quot;&gt; &quot;&lt;/span&gt;&lt;span lang=&quot;EN-US&quot; style=&quot;font-size:9.5pt;font-family:&amp;quot;Cascadia Mono&amp;quot;;&lt;br/&gt;mso-bidi-font-family:&amp;quot;Cascadia Mono&amp;quot;;color:black;mso-ansi-language:EN-US&quot;&gt; +&lt;br&gt;countAll;&lt;/span&gt;&lt;/p&gt;&lt;br&gt;&lt;br&gt;&lt;p class=&quot;MsoNormal&quot; style=&quot;margin-bottom:0cm;line-height:normal;mso-layout-grid-align:&lt;br/&gt;none;text-autospace:none&quot;&gt;&lt;span style=&quot;font-size:9.5pt;font-family:&amp;quot;Cascadia Mono&amp;quot;;&lt;br/&gt;mso-bidi-font-family:&amp;quot;Cascadia Mono&amp;quot;;color:black&quot;&gt;&lt;span style=&quot;mso-spacerun:yes&quot;&gt;&amp;nbsp;&amp;nbsp;&amp;nbsp; &lt;/span&gt;&lt;/span&gt;&lt;span style=&quot;font-size:9.5pt;&lt;br/&gt;font-family:&amp;quot;Cascadia Mono&amp;quot;;mso-bidi-font-family:&amp;quot;Cascadia Mono&amp;quot;;color:green&quot;&gt;//Отобразить&lt;br&gt;все продукты в ListView&lt;/span&gt;&lt;/p&gt;&lt;br&gt;&lt;br&gt;&lt;p class=&quot;MsoNormal&quot; style=&quot;margin-bottom:0cm;line-height:normal;mso-layout-grid-align:&lt;br/&gt;none;text-autospace:none&quot;&gt;&lt;span style=&quot;font-size:9.5pt;font-family:&amp;quot;Cascadia Mono&amp;quot;;&lt;br/&gt;mso-bidi-font-family:&amp;quot;Cascadia Mono&amp;quot;;color:black&quot;&gt;&lt;span style=&quot;mso-spacerun:yes&quot;&gt;&amp;nbsp;&amp;nbsp;&amp;nbsp; &lt;/span&gt;listBoxProducts.ItemsSource = products; &lt;/span&gt;&lt;span style=&quot;font-size:9.5pt;font-family:&amp;quot;Cascadia Mono&amp;quot;;mso-bidi-font-family:&amp;quot;Cascadia Mono&amp;quot;;&lt;br/&gt;color:green&quot;&gt;&lt;/span&gt;&lt;/p&gt;&lt;br&gt;&lt;br&gt;&lt;p class=&quot;MsoNormal&quot;&gt;&lt;span style=&quot;font-size:9.5pt;line-height:107%;font-family:&lt;br/&gt;&amp;quot;Cascadia Mono&amp;quot;;mso-bidi-font-family:&amp;quot;Cascadia Mono&amp;quot;;color:black&quot;&gt;}&lt;/span&gt;&lt;/p&gt;&lt;br&gt;&lt;br&gt;&lt;p class=&quot;MsoNormal&quot; style=&quot;margin-bottom:0cm;line-height:normal;mso-layout-grid-align:&lt;br/&gt;none;text-autospace:none&quot;&gt;&lt;span lang=&quot;EN-US&quot; style=&quot;font-size:9.5pt;font-family:&lt;br/&gt;&amp;quot;Cascadia Mono&amp;quot;;mso-bidi-font-family:&amp;quot;Cascadia Mono&amp;quot;;color:blue;mso-ansi-language:&lt;br/&gt;EN-US&quot;&gt;private&lt;/span&gt;&lt;span lang=&quot;EN-US&quot; style=&quot;font-size:9.5pt;font-family:&amp;quot;Cascadia Mono&amp;quot;;&lt;br/&gt;mso-bidi-font-family:&amp;quot;Cascadia Mono&amp;quot;;color:black;mso-ansi-language:EN-US&quot;&gt; &lt;/span&gt;&lt;span lang=&quot;EN-US&quot; style=&quot;font-size:9.5pt;font-family:&amp;quot;Cascadia Mono&amp;quot;;mso-bidi-font-family:&lt;br/&gt;&amp;quot;Cascadia Mono&amp;quot;;color:blue;mso-ansi-language:EN-US&quot;&gt;void&lt;/span&gt;&lt;span lang=&quot;EN-US&quot; style=&quot;font-size:9.5pt;font-family:&amp;quot;Cascadia Mono&amp;quot;;mso-bidi-font-family:&lt;br/&gt;&amp;quot;Cascadia Mono&amp;quot;;color:black;mso-ansi-language:EN-US&quot;&gt;&lt;br&gt;comboSort_SelectionChanged(&lt;/span&gt;&lt;span lang=&quot;EN-US&quot; style=&quot;font-size:9.5pt;&lt;br/&gt;font-family:&amp;quot;Cascadia Mono&amp;quot;;mso-bidi-font-family:&amp;quot;Cascadia Mono&amp;quot;;color:blue;&lt;br/&gt;mso-ansi-language:EN-US&quot;&gt;object&lt;/span&gt;&lt;span lang=&quot;EN-US&quot; style=&quot;font-size:9.5pt;&lt;br/&gt;font-family:&amp;quot;Cascadia Mono&amp;quot;;mso-bidi-font-family:&amp;quot;Cascadia Mono&amp;quot;;color:black;&lt;br/&gt;mso-ansi-language:EN-US&quot;&gt; sender, SelectionChangedEventArgs e)&lt;/span&gt;&lt;/p&gt;&lt;br&gt;&lt;br&gt;&lt;p class=&quot;MsoNormal&quot; style=&quot;margin-bottom:0cm;line-height:normal;mso-layout-grid-align:&lt;br/&gt;none;text-autospace:none&quot;&gt;&lt;span lang=&quot;EN-US&quot; style=&quot;font-size:9.5pt;font-family:&lt;br/&gt;&amp;quot;Cascadia Mono&amp;quot;;mso-bidi-font-family:&amp;quot;Cascadia Mono&amp;quot;;color:black;mso-ansi-language:&lt;br/&gt;EN-US&quot;&gt;&lt;span style=&quot;mso-spacerun:yes&quot;&gt;&amp;nbsp;&lt;/span&gt;{&lt;/span&gt;&lt;/p&gt;&lt;br&gt;&lt;br&gt;&lt;p class=&quot;MsoNormal&quot; style=&quot;margin-bottom:0cm;line-height:normal;mso-layout-grid-align:&lt;br/&gt;none;text-autospace:none&quot;&gt;&lt;span lang=&quot;EN-US&quot; style=&quot;font-size:9.5pt;font-family:&lt;br/&gt;&amp;quot;Cascadia Mono&amp;quot;;mso-bidi-font-family:&amp;quot;Cascadia Mono&amp;quot;;color:black;mso-ansi-language:&lt;br/&gt;EN-US&quot;&gt;&lt;span style=&quot;mso-spacerun:yes&quot;&gt;&amp;nbsp;&amp;nbsp;&amp;nbsp;&amp;nbsp; &lt;/span&gt;&lt;/span&gt;&lt;span lang=&quot;EN-US&quot; style=&quot;font-size:9.5pt;font-family:&amp;quot;Cascadia Mono&amp;quot;;mso-bidi-font-family:&amp;quot;Cascadia Mono&amp;quot;;&lt;br/&gt;color:blue;mso-ansi-language:EN-US&quot;&gt;if&lt;/span&gt;&lt;span lang=&quot;EN-US&quot; style=&quot;font-size:&lt;br/&gt;9.5pt;font-family:&amp;quot;Cascadia Mono&amp;quot;;mso-bidi-font-family:&amp;quot;Cascadia Mono&amp;quot;;&lt;br/&gt;color:black;mso-ansi-language:EN-US&quot;&gt; (comboSort.SelectedIndex == 0) sort = &lt;/span&gt;&lt;span lang=&quot;EN-US&quot; style=&quot;font-size:9.5pt;font-family:&amp;quot;Cascadia Mono&amp;quot;;mso-bidi-font-family:&lt;br/&gt;&amp;quot;Cascadia Mono&amp;quot;;color:#A31515;mso-ansi-language:EN-US&quot;&gt;&quot;ASC&quot;&lt;/span&gt;&lt;span lang=&quot;EN-US&quot; style=&quot;font-size:9.5pt;font-family:&amp;quot;Cascadia Mono&amp;quot;;mso-bidi-font-family:&lt;br/&gt;&amp;quot;Cascadia Mono&amp;quot;;color:black;mso-ansi-language:EN-US&quot;&gt;;&lt;/span&gt;&lt;/p&gt;&lt;br&gt;&lt;br&gt;&lt;p class=&quot;MsoNormal&quot; style=&quot;margin-bottom:0cm;line-height:normal;mso-layout-grid-align:&lt;br/&gt;none;text-autospace:none&quot;&gt;&lt;span lang=&quot;EN-US&quot; style=&quot;font-size:9.5pt;font-family:&lt;br/&gt;&amp;quot;Cascadia Mono&amp;quot;;mso-bidi-font-family:&amp;quot;Cascadia Mono&amp;quot;;color:black;mso-ansi-language:&lt;br/&gt;EN-US&quot;&gt;&lt;span style=&quot;mso-spacerun:yes&quot;&gt;&amp;nbsp;&amp;nbsp;&amp;nbsp;&amp;nbsp; &lt;/span&gt;&lt;/span&gt;&lt;span lang=&quot;EN-US&quot; style=&quot;font-size:9.5pt;font-family:&amp;quot;Cascadia Mono&amp;quot;;mso-bidi-font-family:&amp;quot;Cascadia Mono&amp;quot;;&lt;br/&gt;color:blue;mso-ansi-language:EN-US&quot;&gt;else&lt;/span&gt;&lt;span lang=&quot;EN-US&quot; style=&quot;font-size:9.5pt;font-family:&amp;quot;Cascadia Mono&amp;quot;;mso-bidi-font-family:&amp;quot;Cascadia Mono&amp;quot;;&lt;br/&gt;color:black;mso-ansi-language:EN-US&quot;&gt; sort = &lt;/span&gt;&lt;span lang=&quot;EN-US&quot; style=&quot;font-size:9.5pt;font-family:&amp;quot;Cascadia Mono&amp;quot;;mso-bidi-font-family:&amp;quot;Cascadia Mono&amp;quot;;&lt;br/&gt;color:#A31515;mso-ansi-language:EN-US&quot;&gt;&quot;DESC&quot;&lt;/span&gt;&lt;span lang=&quot;EN-US&quot; style=&quot;font-size:9.5pt;font-family:&amp;quot;Cascadia Mono&amp;quot;;mso-bidi-font-family:&amp;quot;Cascadia Mono&amp;quot;;&lt;br/&gt;color:black;mso-ansi-language:EN-US&quot;&gt;;&lt;/span&gt;&lt;/p&gt;&lt;br&gt;&lt;br&gt;&lt;p class=&quot;MsoNormal&quot; style=&quot;margin-bottom:0cm;line-height:normal;mso-layout-grid-align:&lt;br/&gt;none;text-autospace:none&quot;&gt;&lt;span lang=&quot;EN-US&quot; style=&quot;font-size:9.5pt;font-family:&lt;br/&gt;&amp;quot;Cascadia Mono&amp;quot;;mso-bidi-font-family:&amp;quot;Cascadia Mono&amp;quot;;color:black;mso-ansi-language:&lt;br/&gt;EN-US&quot;&gt;&lt;span style=&quot;mso-spacerun:yes&quot;&gt;&amp;nbsp;&amp;nbsp;&amp;nbsp; &lt;/span&gt;&lt;span style=&quot;mso-spacerun:yes&quot;&gt;&amp;nbsp;&lt;/span&gt;ShowProduct();&lt;/span&gt;&lt;/p&gt;&lt;br&gt;&lt;br&gt;&lt;p class=&quot;MsoNormal&quot; style=&quot;margin-bottom:0cm;line-height:normal;mso-layout-grid-align:&lt;br/&gt;none;text-autospace:none&quot;&gt;&lt;span lang=&quot;EN-US&quot; style=&quot;font-size:9.5pt;font-family:&lt;br/&gt;&amp;quot;Cascadia Mono&amp;quot;;mso-bidi-font-family:&amp;quot;Cascadia Mono&amp;quot;;color:black;mso-ansi-language:&lt;br/&gt;EN-US&quot;&gt;&lt;span style=&quot;mso-spacerun:yes&quot;&gt;&amp;nbsp;&lt;/span&gt;}&lt;/span&gt;&lt;/p&gt;" style="text;whiteSpace=wrap;html=1;" vertex="1" parent="1">
          <mxGeometry x="3250" y="-700" width="560" height="3670" as="geometry" />
        </mxCell>
      </root>
    </mxGraphModel>
  </diagram>
</mxfile>
